<svg width="120" height="120" viewBox="0 0 120 120" fill="none" xmlns="http://www.w3.org/2000/svg">
<g clip-path="url(#clip0_741_3359)">
<path d="M119.721 32.8867C119.581 32.4664 119.337 32.0886 119.013 31.7884C118.713 31.4928 118.364 31.2523 117.982 31.0777C117.641 30.9268 117.276 30.8372 116.904 30.8132H116.673C116.244 30.8208 115.82 30.9099 115.425 31.0757C115.043 31.2271 114.704 31.4713 114.439 31.7863C114.099 32.082 113.839 32.46 113.684 32.8846C113.56 33.2774 113.488 33.6846 113.469 34.096C113.484 34.5216 113.557 34.9433 113.684 35.3497C113.827 35.7687 114.071 36.1459 114.393 36.448C114.722 36.7357 115.091 36.975 115.487 37.1587C115.869 37.2918 116.269 37.3647 116.673 37.3747H116.904C117.26 37.3371 117.608 37.243 117.935 37.0961C118.335 36.9555 118.702 36.7342 119.013 36.446C119.339 36.1338 119.601 35.7607 119.785 35.3477C119.917 34.9433 119.99 34.5216 120 34.096C119.989 33.6781 119.894 33.2667 119.721 32.8867ZM119.351 35.2367C119.215 35.5862 118.986 35.8914 118.689 36.1189C118.44 36.41 118.122 36.6335 117.765 36.769C117.486 36.8604 117.197 36.9127 116.904 36.9245C116.828 36.9378 116.75 36.9432 116.673 36.9406C116.305 36.9205 115.941 36.8471 115.593 36.7226C115.26 36.5893 114.96 36.3823 114.717 36.1169C114.435 35.8592 114.214 35.542 114.07 35.1882C113.96 34.8483 113.903 34.4936 113.901 34.1364C113.915 33.7462 113.988 33.3604 114.116 32.9916C114.266 32.6523 114.47 32.3394 114.719 32.065C114.982 31.8017 115.296 31.5955 115.642 31.4593C115.993 31.3297 116.362 31.2568 116.735 31.2433H116.906C117.22 31.2838 117.529 31.3562 117.829 31.4593C118.182 31.611 118.497 31.8384 118.754 32.1255C119.019 32.3872 119.224 32.7033 119.357 33.0522C119.486 33.3989 119.56 33.7643 119.574 34.1344C119.555 34.511 119.48 34.8826 119.351 35.2367Z" fill="#141414"/>
<path d="M115.425 32.176V35.9049H116.132V34.312H116.78L116.904 34.5421L117.549 35.9029H118.305L117.489 34.2009C117.739 34.1702 117.972 34.0565 118.151 33.8779C118.277 33.6777 118.352 33.4485 118.368 33.2117C118.368 33.0584 118.329 32.9077 118.253 32.7748C118.177 32.6418 118.067 32.5314 117.935 32.4546C117.622 32.2725 117.266 32.1764 116.904 32.176H115.425ZM117.658 33.2743C117.656 33.3669 117.637 33.4583 117.6 33.5431C117.563 33.628 117.509 33.7048 117.443 33.7689C117.267 33.82 117.087 33.8512 116.904 33.8618C116.828 33.875 116.75 33.8804 116.673 33.8779H116.132V32.608H116.673C116.749 32.608 116.826 32.6242 116.904 32.6242C117.093 32.634 117.277 32.6872 117.443 32.7796C117.51 32.8435 117.563 32.9202 117.6 33.0052C117.637 33.0901 117.657 33.1816 117.658 33.2743Z" fill="#141414"/>
<path d="M32.1838 47.5689V60.8215C32.1838 64.5341 33.2226 67.4061 35.2736 69.322C37.3247 71.238 40.3862 72.2092 44.4751 72.2092C48.564 72.2092 51.8555 71.2512 53.9009 69.322C55.9746 67.4061 56.9775 64.5341 56.9775 60.8215V47.5689H48.8788V60.5943C48.8788 62.2982 48.4754 63.5534 47.7477 64.4243C47.1407 65.1645 46.0134 65.5848 44.5844 65.5848C43.1555 65.5848 41.9113 65.1645 41.3061 64.3069C40.684 63.5496 40.2806 62.2925 40.2806 60.5943V47.5689H32.1838Z" fill="#141414"/>
<path d="M112.286 32.5859C104.18 36.3856 97.5971 37.9665 88.6275 37.9665C76.3363 37.9665 65.3156 33.9642 53.7521 30.4958C46.1982 28.224 38.4427 25.174 30.4552 25.2743C24.9675 25.3463 18.3657 27.6238 14.3654 31.4254C11.1474 34.4867 8.36682 39.8521 7.02271 44.146H112.286V32.5859Z" fill="#F3002E"/>
<path d="M59.2925 47.5689V60.8215C59.2925 64.5341 60.318 67.4061 62.3691 69.322C64.4201 71.238 67.4816 72.2092 71.5705 72.2092C75.6594 72.2092 78.9509 71.2512 80.9963 69.322C83.0417 67.3928 84.0578 64.5341 84.0578 60.8215V47.5689H75.9761V60.5943C75.9761 62.2982 75.5708 63.5534 74.8451 64.4243C74.238 65.1645 73.1107 65.5848 71.6667 65.5848C70.2226 65.5848 69.0105 65.1645 68.4016 64.3069C67.7832 63.5496 67.3779 62.2925 67.3779 60.5943V47.5689H59.2925Z" fill="#141414"/>
<path d="M111.519 54.8351C110.793 53.3408 109.788 52.0002 108.559 50.8858C107.244 49.766 105.736 48.896 104.11 48.3186C102.645 47.9057 101.138 47.6624 99.6181 47.5935C99.2863 47.5784 98.9394 47.5632 98.6076 47.5632H86.7424V71.7775H98.6001C98.9319 71.7775 99.2787 71.7643 99.6105 71.7492C101.163 71.6737 102.704 71.4306 104.205 71.024C105.692 70.6037 107.281 69.6458 108.552 68.5723C109.822 67.3985 110.978 66.0203 111.613 64.6268C112.249 63.2334 112.556 61.539 112.556 59.7404C112.557 58.0504 112.203 56.3791 111.519 54.8351ZM102.32 63.9888C101.58 64.7325 100.642 65.2448 99.6181 65.4637C99.1805 65.5517 98.7353 65.5954 98.289 65.5943H95.2125V53.7635H98.289C98.7361 53.7603 99.182 53.8086 99.6181 53.9074C100.678 54.1608 101.648 54.7033 102.421 55.475C103.462 56.5485 104.01 58.0422 104.01 59.7404C104.025 61.3247 103.417 62.851 102.32 63.9888Z" fill="#141414"/>
<path d="M28.0667 63.7711C27.6331 62.9305 27.2146 62.0672 26.781 61.5371C26.3474 61.007 25.829 60.4769 25.1937 60.2743C26.3283 59.7937 27.3185 59.0244 28.0667 58.0422C28.7103 57.0994 29.0439 55.9779 29.0206 54.8351C29.0206 52.3739 28.0667 50.4561 26.2607 49.2804C24.5867 48.2372 21.7702 47.5992 18.2299 47.5765H7V71.7775H15.4135V61.6393H16.5842C17.1628 61.6384 17.7312 61.7933 18.2299 62.088C18.4487 62.2256 18.6441 62.3975 18.8086 62.5973C19.3421 63.1312 20.1942 64.5246 21.0463 66.4405L23.3858 71.7775H31.6805L28.0667 63.7711ZM20.0943 56.8514C19.5267 57.1889 18.8881 57.388 18.2299 57.4326C17.8226 57.4804 17.4128 57.5045 17.0027 57.5045H15.4135V51.8324H17.1101C17.4817 51.838 17.8525 51.8671 18.2205 51.9195C18.8843 52.0114 19.5221 52.2396 20.0943 52.5897C20.7145 53.0233 21.0463 53.7635 21.0463 54.7215C21.0463 55.6795 20.7145 56.4311 20.0943 56.8514Z" fill="#141414"/>
<path d="M7.02271 86.414C15.1402 82.5992 21.7119 81.0183 30.6815 81.0183C42.9727 81.0183 53.9934 85.0376 65.5569 88.5041C73.1108 90.776 80.8814 93.8052 88.8556 93.7256C94.3433 93.6518 100.958 91.3743 104.944 87.5746C108.165 84.5132 110.938 79.1478 112.283 74.854H7.02271V86.414Z" fill="#F3002E"/>
</g>
<defs>
<clipPath id="clip0_741_3359">
<rect width="120" height="73" fill="white" transform="translate(0 23)"/>
</clipPath>
</defs>
</svg>
