<svg width="120" height="120" viewBox="0 0 120 120" fill="none" xmlns="http://www.w3.org/2000/svg">
<path d="M117.119 81.3657C116.355 81.3657 115.623 81.0645 115.082 80.5285C114.542 79.9924 114.239 79.2654 114.239 78.5073C114.239 77.7492 114.542 77.0222 115.082 76.4861C115.623 75.9501 116.355 75.6489 117.119 75.6489C118.705 75.6489 120 76.9339 120 78.5073C120 80.091 118.708 81.3579 117.119 81.3657ZM117.112 75.9811C116.777 75.9814 116.446 76.0473 116.137 76.1749C115.828 76.3026 115.547 76.4894 115.311 76.7248C115.075 76.9602 114.888 77.2395 114.761 77.5467C114.634 77.8539 114.57 78.183 114.571 78.515C114.573 79.0138 114.724 79.5008 115.005 79.9145C115.286 80.3282 115.684 80.6501 116.149 80.8394C116.614 81.0288 117.125 81.0771 117.618 80.9784C118.11 80.8796 118.563 80.6382 118.917 80.2846C119.272 79.931 119.513 79.4811 119.61 78.9917C119.707 78.5023 119.655 77.9953 119.462 77.5348C119.269 77.0743 118.943 76.681 118.524 76.4045C118.106 76.1279 117.614 75.9806 117.112 75.9811ZM116.042 76.8515H117.462C117.955 76.8515 118.43 76.9416 118.474 77.6549C118.49 78.0618 118.365 78.2086 118.056 78.4429C118.381 78.6515 118.391 78.7004 118.44 79.2464C118.474 79.6609 118.414 79.7279 118.591 80.0009H118.106L118.038 79.6017C117.973 79.2283 118.155 78.6489 117.496 78.6489H116.452V79.9983H116.045L116.042 76.8515ZM116.452 77.2069V78.291H117.472C117.747 78.291 118.015 78.2163 118.056 77.8094C118.113 77.2712 117.721 77.2043 117.472 77.2043H116.452V77.2069Z" fill="black"/>
<path d="M59.7171 84L0 73.5399L4.47405 36H114.745L119.221 73.5399L59.7171 84Z" fill="#CF4037"/>
<path d="M19.8555 44.5777H23.9584V50.4824H24.0233C24.3892 49.4575 25.9203 48.7107 27.1842 48.7107C29.8079 48.7107 30.1401 50.606 30.1401 52.594V62.9459C30.1401 64.9339 29.3563 66.7751 26.7326 66.7751C25.4714 66.7751 19.8555 66.7056 19.8555 66.7056V44.5777ZM23.9584 63.5073C23.9584 63.9425 24.4255 64.4395 24.9887 64.4395C25.5518 64.4395 25.9203 63.9425 26.0345 63.5073V52.8773C25.9229 52.4421 25.5544 51.9425 24.9887 51.9425C24.4255 51.976 23.9584 52.4112 23.9584 52.8773V63.5073ZM39.1245 50.4515H39.1894C39.82 49.3648 41.1072 48.7107 42.5683 48.7107C44.66 48.7107 45.1894 49.8901 45.1894 51.8189V56.5597H41.0864V52.8773C40.9748 52.4421 40.7179 51.9451 40.1548 51.9451C39.5916 51.9451 39.1245 52.4421 39.1245 52.8773V66.7082H35.0579V48.9296H39.1245V50.4515ZM59.7975 48.9296L56.8079 66.8936C56.3096 69.9708 55.7127 71.1348 51.5631 71.1348H49.4376V67.764H50.7664C51.6643 67.764 51.9627 67.6095 51.9627 66.9554C51.9627 66.7983 51.9627 66.6438 51.929 66.4275L48.589 48.9296H52.8062L54.4203 62.5107H54.4852L55.8814 48.9296H59.7975ZM63.8823 52.7228C63.8823 50.0498 66.1401 48.4146 68.8286 48.4146C71.4861 48.4146 73.8087 49.5992 73.8087 53.0215C73.8087 53.0215 73.7049 65.6781 73.8061 66.8601C73.8061 66.8601 69.0959 67.0841 66.7032 66.9271C64.583 66.788 63.8823 65.7451 63.8823 63.7262V59.8996C63.8823 55.4241 69.8563 57.1339 69.8563 53.279V52.5657C69.8563 52.1305 69.3944 51.6335 68.8286 51.6335C68.2655 51.6335 67.9489 52.1305 67.9489 52.5657V54.2189H63.8823V52.7228ZM67.9359 63.1932C67.9359 63.618 68.1279 64.1047 68.7845 64.1047C69.4385 64.1047 69.6695 63.618 69.6695 63.1932V58.1665L68.7845 58.6532C68.089 59.1399 67.9359 59.261 67.9359 60.0232V63.1932ZM83.2629 50.485H83.3304C83.5951 49.3957 84.9445 48.564 86.0708 48.564C88.762 48.564 89.4627 50.5468 89.4627 52.5966V66.7056H85.3572V52.8773C85.2456 52.4421 84.8589 51.9451 84.2932 51.9451C83.73 51.9451 83.2629 52.4421 83.1305 52.8773V66.7082H79.0484V48.9296H83.2655L83.2629 50.485ZM99.2646 48.7056H101.237V51.6258H99.2646V62.5726C99.397 63.1313 99.4956 63.7854 100.126 63.7854H101.377V66.8575H98.7326C95.7118 66.7056 95.1798 65.8378 95.1798 63.103V51.6258H93.3736V48.7056H95.1798V45.3245H99.2646V48.7056Z" fill="white"/>
<path d="M59.6183 80.8249L115.863 70.9468L112.079 38.9846H7.14424L3.35791 70.9468L59.6183 80.8249ZM59.6027 79.4652L4.8657 69.8472L8.41068 40.3262C8.41068 40.3313 110.81 40.3262 110.81 40.3262L114.355 69.8472L59.6027 79.4652Z" fill="white"/>
</svg>
