<svg width="120" height="120" viewBox="0 0 120 120" fill="none" xmlns="http://www.w3.org/2000/svg">
<path fill-rule="evenodd" clip-rule="evenodd" d="M36.3249 24C16.2411 24 0 40.2867 0 60.3249C0 80.3626 16.2411 96.6037 36.3249 96.6037C56.3632 96.6037 72.6031 80.3632 72.6031 60.3249C72.6031 40.2867 56.3632 24 36.3249 24ZM22.9663 42.6657C25.3453 42.6657 27.3125 44.6329 27.3125 47.0112C27.3125 49.4357 25.3453 51.4036 22.9663 51.4036C21.8016 51.4031 20.6847 50.9401 19.8612 50.1165C19.0377 49.2928 18.5749 48.1759 18.5746 47.0112C18.5746 44.6329 20.5418 42.6657 22.9663 42.6657ZM40.0765 77.8008H34.953V43.5809H38.3383V74.3699H45.2001V77.8014L40.0765 77.8008ZM40.0765 88.6432C52.9317 86.9505 63.0884 76.6565 64.6432 63.7558H45.2001V60.187H67.754C67.754 76.2447 55.6769 89.6495 40.0765 91.5712C38.8412 91.7091 37.5603 91.754 36.3249 91.754C31.5214 91.754 26.9918 90.7015 22.9663 88.8266C12.2612 83.7941 4.80416 72.9055 4.80416 60.3249C4.80416 47.7437 12.2612 36.8558 22.9663 31.8233C26.809 30.0389 31.1096 28.987 35.6386 28.8497V31.7777C31.2146 31.8658 26.8734 32.9941 22.9663 35.0714C13.9083 39.8749 7.73219 49.3908 7.73219 60.3249C7.73219 71.259 13.9083 80.775 22.9663 85.5779C26.9469 87.6823 31.4759 88.8715 36.3249 88.8715C37.5603 88.8715 38.8412 88.7798 40.0765 88.6432ZM75.0289 73.9126V49.0246H83.2184V68.102H94.427V73.9126H75.0289ZM120 74.0036H114.694L114.418 71.5329C113.046 73.1339 110.803 74.5969 106.87 74.5969C100.511 74.5969 94.792 70.4804 94.792 61.7874C94.792 53.8275 99.7789 48.3838 107.875 48.3838C113.869 48.3838 118.673 51.4947 119.679 57.6252H111.902C111.306 55.5663 109.843 54.4682 107.693 54.4682C104.491 54.4682 102.981 57.3963 102.981 61.7425C102.981 65.2651 104.078 68.5138 108.196 68.5138C109.843 68.5138 111.993 67.3702 112.405 65.6313H108.791V60.2781H119.999L120 74.0036Z" fill="#A60031"/>
</svg>
