<svg width="120" height="120" viewBox="0 0 120 120" fill="none" xmlns="http://www.w3.org/2000/svg">
<g clip-path="url(#clip0_741_3259)">
<rect x="-20" y="-20" width="160" height="160" rx="20" fill="#F4F7FF"/>
<path d="M108.609 46.8096H10.6663C7.67589 46.8096 5.25049 49.0631 5.25049 51.8445V70.3061C5.25049 73.0861 7.67589 75.3396 10.6663 75.3396H108.609C111.601 75.3396 114.025 73.0861 114.025 70.3061V51.8445C114.025 49.0631 111.601 46.8096 108.609 46.8096ZM113.117 69.5245C113.117 72.0715 110.733 74.1332 107.792 74.1332H11.4851C8.54337 74.1332 6.15928 72.0715 6.15928 69.5245V52.6232C6.15928 50.0777 8.54337 48.0145 11.4851 48.0145H107.792C110.733 48.0145 113.117 50.0777 113.117 52.6232V69.5245Z" fill="#CF4037"/>
<path d="M111.968 68.6706C111.968 71.0981 109.989 73.0846 107.573 73.0846H11.703C9.28502 73.0846 7.30811 71.0981 7.30811 68.6706V53.4771C7.30811 51.0496 9.28649 49.0631 11.703 49.0631H107.573C109.991 49.0631 111.968 51.0496 111.968 53.4771V68.6706ZM117.27 46.5293C117.825 46.5293 118.061 46.668 118.061 46.9836C118.061 47.2815 117.848 47.4039 117.295 47.4039H116.808V46.5293H117.27ZM116.239 49.1515H116.81V47.8286H117.376L117.993 49.1515H118.618L117.958 47.721C118.151 47.6984 118.328 47.603 118.454 47.4542C118.579 47.3055 118.644 47.1145 118.633 46.9202C118.633 46.3804 118.217 46.1046 117.385 46.1046H116.242V49.1515H116.239ZM118.205 45.528C119.037 45.8731 119.616 46.7299 119.616 47.7018C119.616 48.6295 119.011 49.4819 118.183 49.8255C117.904 49.9427 117.605 50.0027 117.302 50.0019C116.999 50.0012 116.7 49.9397 116.422 49.8211C116.005 49.6373 115.65 49.338 115.398 48.9588C115.147 48.5796 115.009 48.1362 115.001 47.6812C115.001 46.783 115.581 45.8731 116.428 45.5235C116.998 45.2934 117.636 45.2949 118.205 45.528ZM116.14 45.2625C115.696 45.4918 115.322 45.8376 115.059 46.2629C114.797 46.6882 114.655 47.1769 114.648 47.6767C114.648 48.7356 115.327 49.7311 116.292 50.1456C117.252 50.5556 118.412 50.3284 119.191 49.566C119.693 49.0763 119.967 48.4127 119.967 47.6767C119.967 46.9556 119.698 46.2904 119.204 45.7949C118.958 45.5407 118.663 45.3392 118.337 45.2026C118.011 45.0659 117.661 44.997 117.307 45C116.884 45 116.496 45.087 116.14 45.2625Z" fill="#CF4037"/>
<path d="M17.8566 63.0442V60.0504H26.4148C26.4429 60.5208 26.4561 60.7701 26.4561 60.7996C26.4561 63.0472 25.7495 64.9231 24.3376 66.4289C22.9257 67.9347 21.1716 68.6868 19.0766 68.6868C17.0363 68.6868 15.3102 67.9391 13.8983 66.4436C12.4865 64.9482 11.7798 63.1239 11.7798 60.9721C11.7798 58.8204 12.4894 57.0152 13.9087 55.5566C15.3279 54.0981 17.0776 53.368 19.1593 53.368C20.7305 53.368 22.1718 53.8651 23.4804 54.8576C24.7905 55.8516 25.6373 57.0993 26.0239 58.6006H22.8844C22.2368 57.3397 21.4962 56.3191 19.3156 56.3191C17.6781 56.3191 16.6911 57.1037 15.9741 57.8913C15.2571 58.6788 14.8986 59.661 14.8986 60.8394C14.8986 62.2095 15.2645 63.3126 15.9947 64.1518C16.725 64.991 18.0897 65.6708 19.3038 65.6708C20.0754 65.6708 20.996 65.2004 21.5404 64.7801C22.0863 64.3597 22.4403 63.7831 22.6071 63.0457H17.8566V63.0442ZM35.0645 60.7288C35.5986 61.2848 35.8671 61.9617 35.8671 62.7581C35.8671 63.5707 35.603 64.2521 35.0749 64.7992C34.5482 65.3493 33.8887 65.6237 33.098 65.6237C32.2924 65.6237 31.6212 65.3493 31.0856 64.7992C30.5516 64.2506 30.2845 63.5634 30.2845 62.736C30.2845 61.9396 30.5545 61.2656 31.0989 60.717C31.6418 60.1684 32.3087 59.8926 33.098 59.8926C33.8754 59.894 34.529 60.1728 35.0645 60.7288ZM37.5622 67.066C38.744 65.9245 39.3356 64.4881 39.3356 62.7596C39.3356 61.0311 38.741 59.5961 37.5504 58.4546C36.3599 57.3117 34.8698 56.7394 33.0758 56.7394C31.2671 56.7394 29.7726 57.3146 28.5894 58.4635C27.4062 59.6138 26.8161 61.068 26.8161 62.826C26.8161 64.5411 27.4107 65.9599 28.6012 67.0881C29.7918 68.2164 31.2907 68.7797 33.098 68.7797C34.8919 68.7797 36.379 68.2075 37.5622 67.066ZM48.0546 60.7288C48.5842 61.2848 48.8513 61.9617 48.8513 62.7581C48.8513 63.5707 48.5887 64.2521 48.0664 64.7992C47.8171 65.0674 47.5136 65.2795 47.1761 65.4217C46.8386 65.5638 46.4748 65.6326 46.1087 65.6237C45.3105 65.6237 44.6452 65.3493 44.1155 64.7992C43.5844 64.2506 43.3189 63.5634 43.3189 62.736C43.3189 61.9396 43.5874 61.2656 44.1259 60.717C44.381 60.4499 44.6889 60.2387 45.0299 60.0968C45.371 59.9549 45.7378 59.8853 46.1072 59.8926C46.8744 59.894 47.525 60.1728 48.0546 60.7288ZM50.5287 67.066C51.7001 65.9245 52.2858 64.4881 52.2858 62.7596C52.2858 61.0311 51.6957 59.5961 50.5169 58.4546C49.3381 57.3117 47.8599 56.7394 46.0836 56.7394C44.2911 56.7394 42.8114 57.3146 41.6385 58.4635C40.4671 59.6138 39.8829 61.068 39.8829 62.826C39.8829 64.5411 40.4701 65.9599 41.6503 67.0881C42.8291 68.2149 44.3147 68.7797 46.1072 68.7797C47.8835 68.7797 49.3558 68.2075 50.5287 67.066ZM60.9355 60.7568C61.446 61.2951 61.7012 61.9602 61.7012 62.7522C61.7012 63.5899 61.446 64.2816 60.9355 64.8273C60.4265 65.3729 59.773 65.6458 58.9807 65.6458C58.2018 65.6458 57.5615 65.3759 57.0584 64.8391C56.5553 64.3008 56.3045 63.612 56.3045 62.7758C56.3045 61.9543 56.5583 61.2774 57.0687 60.7465C57.5792 60.2156 58.2298 59.9501 59.0235 59.9501C59.7892 59.9486 60.4265 60.2185 60.9355 60.7568ZM61.5492 58.1213C60.6965 57.2482 59.6476 56.8117 58.3995 56.8117C56.8814 56.8117 55.6229 57.3766 54.6227 58.5033C53.6224 59.6315 53.1223 61.0547 53.1223 62.7729C53.1223 64.522 53.6209 65.9584 54.6182 67.0867C55.617 68.2134 56.8946 68.7783 58.4511 68.7783C59.8098 68.7783 60.8927 68.2547 61.6997 67.2061V68.3963H64.7315V53.4211H61.5492V58.1213ZM69.5306 68.4051H66.3204V57.2025H69.3757V58.403C70.019 57.3677 70.9971 56.8515 72.3101 56.8515C73.6807 56.8515 74.7163 57.5093 75.4156 58.8278C76.2005 57.5093 77.3365 56.8515 78.8221 56.8515C79.9212 56.8515 80.8418 57.2232 81.5854 57.968C82.1416 58.5195 82.4912 59.1906 82.6343 59.9796C82.7199 60.3955 82.7627 61.1712 82.7627 62.3024V68.4037H79.5539V62.4587C79.5539 60.7037 79.1113 59.9781 77.9591 59.9781C76.7803 59.9781 76.1916 60.7524 76.1916 62.3024V68.4037H72.9829V62.3024C72.9829 60.7524 72.4326 59.9781 71.3305 59.9781C70.1296 59.9781 69.5292 60.7524 69.5292 62.3024L69.5306 68.4051ZM91.7104 60.7553C92.2208 61.2951 92.4761 61.9691 92.4761 62.7788C92.4761 63.6179 92.2238 64.3081 91.7222 64.8464C91.2191 65.3862 90.5729 65.6546 89.7836 65.6546C89.0224 65.6546 88.3836 65.3818 87.8657 64.8346C87.3479 64.2875 87.0897 63.6105 87.0897 62.8009C87.0897 61.9912 87.345 61.3128 87.8539 60.7657C88.3644 60.22 89.0003 59.9457 89.7615 59.9457C90.5508 59.9471 91.1999 60.217 91.7104 60.7553ZM92.6605 58.403C92.0733 57.3485 90.9845 56.8206 89.3956 56.8206C87.7772 56.8206 86.4539 57.3795 85.4241 58.4974C84.3929 59.6153 83.878 61.0532 83.878 62.8112C83.878 64.5854 84.3825 66.0248 85.3917 67.1265C86.3993 68.2296 87.7138 68.7797 89.3307 68.7797C91.048 68.7797 92.1589 68.2518 92.6605 67.1914V68.3978H95.6893V57.2025H92.6605V58.403ZM100.499 68.4051H97.1572V57.2025H100.338V58.403C101.065 57.3677 102.085 56.8515 103.393 56.8515C104.612 56.8515 105.608 57.2305 106.381 57.9901C106.81 58.4222 107.104 58.8735 107.262 59.3425C107.417 59.8115 107.495 60.5017 107.495 61.4087V68.4037H104.153V62.3024C104.153 60.7524 103.57 59.9781 102.403 59.9781C101.132 59.9781 100.496 60.7081 100.496 62.1667V68.4051H100.499Z" fill="#F4F7FF"/>
</g>
<defs>
<clipPath id="clip0_741_3259">
<rect width="120" height="30.3382" fill="white" transform="translate(0 45)"/>
</clipPath>
</defs>
</svg>
