<svg width="120" height="120" viewBox="0 0 120 120" fill="none" xmlns="http://www.w3.org/2000/svg">
<path fill-rule="evenodd" clip-rule="evenodd" d="M16.7236 66.1383L16.827 65.8283L40.0387 65.5195C40.2454 64.9007 40.3481 64.2819 40.5548 63.6619L17.5497 63.3531L17.6531 63.043L40.6588 62.7343C40.7621 62.1154 40.7621 61.4966 40.8648 60.8778L18.3752 60.5678L18.4786 60.259L40.8648 60.0523C40.8648 59.3302 40.7615 58.7113 40.7615 58.0925L19.2001 57.7825L19.3035 57.4731L40.6581 57.267C40.5548 56.5449 40.4514 55.9261 40.2454 55.3072L20.129 54.9978L20.2323 54.6878L40.0393 54.4811L39.4205 52.6247L20.8511 52.418L20.9545 52.108L39.1111 51.9019C36.0145 45.1964 29.2063 40.4507 21.2626 40.4507C11.8752 40.4507 3.9315 47.1562 2.17778 56.0282L30.2379 55.7188L29.9285 56.7503L2.07443 56.4409C1.97109 57.2664 1.86775 57.9879 1.7644 58.8134L29.4124 58.504L29.103 59.5356L1.7644 59.2262V60.0517C1.7644 60.5672 1.7644 61.0826 1.86775 61.5993L28.5869 61.2893L28.2775 62.3215L1.86775 62.0115C1.97109 62.837 2.07443 63.5591 2.2805 64.384L27.7614 64.0752L27.452 65.1062L2.38384 64.7974C2.59053 65.6229 2.79659 66.3438 3.106 67.0666L26.8332 66.8611L26.5238 67.8921L3.31206 67.5833C3.62209 68.4075 4.03422 69.1297 4.44697 69.8525L26.0077 69.647L25.6983 70.678L4.75637 70.3673C5.27247 71.1928 5.78794 71.915 6.40675 72.6371L25.1828 72.4305L24.8728 73.4626L6.92284 73.2559C10.4303 77.0728 15.5887 79.548 21.2626 79.548C29.8252 79.548 37.1501 74.0815 39.7287 66.4465L16.7236 66.1383ZM52.2114 52.108H64.9008L63.5598 56.5443H60.0518L57.2665 65.9317H52.0053L54.8933 56.5443H50.8698L52.2114 52.108ZM75.5252 65.9317H70.0586L68.2022 60.6705H68.0988L66.5512 65.9317H61.4967L65.6236 52.1073H71.0902C77.3835 52.1073 76.6614 55.9248 76.3513 56.9564C75.7325 58.8128 74.8049 59.7417 72.8445 60.3611L75.5252 65.9317ZM69.0264 57.5758H69.7486C70.9862 57.5758 71.605 57.6792 71.8117 56.7503C72.0184 55.9248 71.1929 55.8215 70.2653 55.8215H69.5431L69.0264 57.5758Z" fill="#D35D35"/>
<path fill-rule="evenodd" clip-rule="evenodd" d="M78.0022 65.9316H72.6377L80.3747 52.1073H86.358L87.5957 65.9316H82.7479L82.6445 63.4557H79.1365L78.0022 65.9316ZM82.4379 56.5442H82.2312L80.4781 60.2583H82.5412L82.4379 56.5442Z" fill="#D35D35"/>
<path fill-rule="evenodd" clip-rule="evenodd" d="M98.8408 52.108H103.999L99.873 65.9317H94.9206L93.3723 59.7417H93.2702L91.6192 65.9317H86.4614L90.6916 52.108H95.6428L97.1904 58.0913H97.2938L98.8408 52.108ZM105.134 52.108H115.038L113.902 55.9254H109.156L108.744 57.2664H113.387L112.252 60.7739H107.61L107.196 62.2182H112.149L111.014 65.9317H101.007L105.134 52.108ZM116.172 53.759H115.862V52.4174H115.45V52.108H116.481V52.4174H116.172V53.759ZM118.236 53.759H117.926V52.4174L117.617 53.759H117.307L116.998 52.4174V53.759H116.688V52.108H117.204L117.514 53.4489L117.822 52.108H118.236V53.759Z" fill="#D35D35"/>
</svg>
