<svg width="120" height="120" viewBox="0 0 120 120" fill="none" xmlns="http://www.w3.org/2000/svg">
<path d="M27.331 47H0.000737337V72.3125L27.331 47Z" fill="#44C8F5"/>
<path d="M13.6633 47H0V59.6621L13.6633 47Z" fill="#231F20"/>
<path d="M65.4948 52.4941L61.9272 66.8133H68.2305L71.7952 52.4941H65.4948Z" fill="#00A0E4"/>
<path d="M49.6533 60.7932L51.984 56.6623L52.74 60.7932H49.6533ZM50.202 52.4927L42.0955 66.8111H46.2644L47.61 64.4244H53.3975L53.8287 66.8111H59.9818L57.3664 52.4927H50.202Z" fill="#00A0E4"/>
<path d="M94.2809 52.4941L90.7228 66.8133H97.0247L100.584 52.4941H94.2809Z" fill="#00A0E4"/>
<path d="M91.4642 52.4941H85.0054L79.5989 57.178L80.7788 52.4941H74.7375L71.1793 66.8133H77.2017L78.4321 61.87L81.6523 66.8133H88.9423L83.543 59.3142L91.4642 52.4941Z" fill="#00A0E4"/>
<path d="M37.1495 59.0014C37.1495 59.0014 36.7401 63.6523 32.7923 63.6523H30.5586L32.5259 55.929H34.5531C35.2784 55.9334 37.3779 56.1224 37.1495 59.0014ZM36.8298 52.5007L35.1996 52.4956H27.3128L23.7547 66.8089H31.586L34.6845 66.8133C39.0467 66.8133 43.3397 63.5534 43.3397 58.5604C43.3397 52.6853 36.8298 52.5007 36.8298 52.5007Z" fill="#00A0E4"/>
<path d="M115.637 52.4919L113.535 60.9236L110.734 52.4919H103.724L100.163 66.8133H104.522L106.645 58.3076L109.454 66.8133H116.434L120 52.4919H115.637Z" fill="#00A0E4"/>
</svg>
