<svg width="120" height="120" viewBox="0 0 120 120" fill="none" xmlns="http://www.w3.org/2000/svg">
<path d="M99.6621 75.6959C80.5726 79.8826 55.3965 75.6129 55.3965 75.6129C55.3965 75.6129 113.495 81.0262 111.955 59.3914C110.387 37.4799 28.164 46.7019 28.164 46.7019C78.553 38.6142 101.673 46.25 103.508 46.582C113.089 49.1365 119.305 53.8305 119.877 58.9856C121.408 68.4382 108.34 73.7869 99.6621 75.6959Z" fill="#C4053F"/>
<path d="M66.5461 71.1033C64.6095 71.1033 63.3 70.6606 62.5991 69.7753C61.8982 68.89 61.7783 67.5528 62.3593 65.7453L65.6977 55.5366C66.3893 53.3786 67.2839 51.94 68.3628 51.2207C69.4418 50.5014 71.1294 50.1325 73.4626 50.1325H75.8326C78.1381 50.1325 79.1526 50.3723 80.0286 51.359C80.7756 52.2074 80.8033 53.3786 80.1116 55.5366L76.7825 65.7361C76.2015 67.5805 75.5744 69.0376 74.311 69.9229C72.7622 70.8042 70.9898 71.2144 69.2113 71.1033H66.5461ZM77.3266 55.223C77.4857 54.8928 77.5759 54.5336 77.5917 54.1674C77.6076 53.8011 77.5488 53.4355 77.4188 53.0927C77.1514 52.687 76.7641 52.5579 76.0448 52.5025C75.4306 52.4615 74.8145 52.4615 74.2004 52.5025C73.4402 52.4559 72.6873 52.6743 72.0701 53.1204C71.4523 53.6846 71.0375 54.4365 70.8896 55.2599L67.3853 66.0681C67.2265 66.3963 67.1342 66.7526 67.1137 67.1167C67.0931 67.4807 67.1446 67.8451 67.2654 68.1892C67.5052 68.5949 68.2614 68.8531 69.4695 68.8531C70.5774 68.9662 71.6905 68.696 72.6234 68.0877C73.1675 67.7465 73.4349 67.0825 73.7946 66.0773L77.3266 55.223Z" fill="#C4053F"/>
<path d="M11.7396 70.7713C11.7396 70.7713 -0.00921657 70.7713 5.42611e-06 70.7713L6.66752 50.3907H11.6382C11.6382 50.3907 5.61621 68.4566 5.66232 68.4566H12.4958L11.7396 70.7713Z" fill="#C4053F"/>
<path d="M31.1336 52.7331L31.8898 50.446H20.224L13.5565 70.7344H25.1947L25.9601 68.4566H19.2373C19.2373 68.4566 20.4453 64.7032 21.801 60.6271H27.6477L28.4039 58.3308H22.5664L24.4108 52.6962L31.1336 52.7331Z" fill="#C4053F"/>
<path d="M61.852 50.3907L57.4254 64.0024L55.581 50.3907H50.7026L44.0904 70.6791H48.9412L53.3769 57.0582C53.3769 57.0582 55.2213 70.4762 55.2213 70.6699H58.0433L64.6186 50.3907H61.852Z" fill="#C4053F"/>
<path d="M97.0155 50.4276H93.465L89.2321 55.7671L88.1808 50.4276L82.9704 50.4368L84.8886 59.6773L76.4412 70.7713H79.9364L85.6355 63.2738L87.1941 70.7713H92.1832L89.9607 59.4559L97.0155 50.4276Z" fill="#C4053F"/>
<path d="M45.0219 50.3907L40.6414 64.0393L38.797 50.4368H33.9278L27.3064 70.7252H32.1848L36.6206 57.1043C36.6206 57.1043 38.465 70.5315 38.465 70.716H41.2962L47.8622 50.3907H45.0219Z" fill="#C4053F"/>
</svg>
