<svg width="120" height="120" viewBox="0 0 120 120" fill="none" xmlns="http://www.w3.org/2000/svg">
<path fill-rule="evenodd" clip-rule="evenodd" d="M59.9479 100C37.8558 99.9712 19.9705 82.0399 20 59.9487C20.0288 37.8566 37.9609 19.9713 60.0513 20C82.1426 20.0288 100.029 37.9616 100 60.0529C99.9712 82.1442 82.0391 100.03 59.9479 100ZM88.3927 83.402C89.5408 83.4035 90.5365 82.5323 90.5388 81.2162C90.5404 79.9 89.5463 79.0265 88.3982 79.0257C87.2423 79.0242 86.2443 79.8946 86.2427 81.2107C86.2404 82.4569 87.1357 83.3996 88.3927 83.402ZM48.2014 49.0228C47.8226 39.3299 41.1353 34.9762 32.7507 34.9039C31.8103 34.8961 30.5533 34.9295 29.6144 35.0548L29.5491 84.932L33.5659 84.9367L33.5939 63.9873L54.2742 87.6608L58.4808 87.6662L39.641 64.9713C46.0055 61.7689 48.4799 56.1418 48.2014 49.0228ZM55.2737 51.7881C54.3605 51.9102 53.5336 52.4213 52.9254 53.1502L52.9689 21.3068C51.848 21.5083 50.7466 21.7603 49.6614 22.0575L49.5899 76.3856L52.8966 76.3903L52.9222 57.0262C52.9222 57.0262 52.9238 55.5086 54.11 55.511C55.3375 55.5133 55.3359 57.0301 55.3359 57.0301L55.3126 76.3934L58.6162 76.3973L58.6442 55.0614C58.6473 53.0062 57.139 51.5415 55.2737 51.7881ZM64.5458 51.7842C61.9571 51.7819 59.8561 55.143 59.8437 64.2176C59.8328 73.2929 61.9252 76.6579 64.5139 76.6618C66.6904 76.6649 68.523 74.2862 69.0574 68.1232L65.8861 67.7063C65.7647 71.461 65.3914 72.9319 64.5186 72.9304C63.477 72.9296 63.1776 70.8558 63.1511 65.3501L69.2122 65.3587L69.213 64.23C69.2254 55.1555 67.133 51.7881 64.5458 51.7842ZM75.1699 51.799C72.5842 51.7951 70.4817 55.1578 70.4692 64.2323C70.4583 73.3069 72.5524 76.6727 75.1387 76.6758C77.316 76.6781 79.1494 74.3002 79.6838 68.138L76.5124 67.7211C76.3919 71.475 76.0185 72.9459 75.1426 72.9452C74.1034 72.9436 73.8032 70.8691 73.7767 65.3641L79.837 65.3719L79.8378 64.2448C79.8502 55.1703 77.7578 51.8021 75.1699 51.799ZM92.7589 51.8231C91.5602 51.8216 90.5147 52.3995 89.9842 53.2497C89.4537 52.398 88.4153 51.8169 87.2174 51.8161C86.0288 51.8146 84.995 52.2634 84.4606 53.1043L84.4536 53.0809C84.186 51.7749 82.9259 51.7197 81.406 51.9577C81.3196 51.9709 81.2325 51.988 81.1493 52.0059L81.1158 76.4269L84.4225 76.4315L84.4482 57.0675C84.4482 57.0675 84.4497 55.5506 85.636 55.553C86.865 55.5537 86.8634 57.0713 86.8634 57.0713L86.8401 76.4354L90.1437 76.4393L90.1701 57.0752C90.1701 57.0752 90.1709 55.5584 91.3564 55.56C92.5854 55.5615 92.5838 57.0791 92.5838 57.0791L92.5605 76.4417L95.8656 76.4471L95.8944 55.1104L95.9037 54.5441C95.8967 53.0708 94.4974 51.8255 92.7589 51.8231ZM75.166 55.5312C76.1632 55.532 76.5008 57.4595 76.5513 62.4946L73.7868 62.4915C73.8467 57.4556 74.1664 55.5296 75.166 55.5312ZM64.5412 55.5164C65.5368 55.518 65.8752 57.4447 65.9273 62.4814L63.1612 62.4767C63.2211 57.4416 63.5424 55.5148 64.5412 55.5164ZM34.4776 62.3211C34.224 62.3421 33.8047 62.3064 33.5955 62.2916L33.6266 39.0716C34.0179 39.0732 34.4115 39.0156 34.8012 39.0195C41.1991 39.0818 44.5843 43.9278 44.5773 49.9967C44.5688 56.2118 40.9945 61.7969 34.4776 62.3211ZM88.3974 79.4069C89.3332 79.4084 90.0713 80.1513 90.0698 81.2162C90.069 82.2857 89.3293 83.0224 88.3927 83.0208C87.3527 83.0192 86.7102 82.2056 86.7118 81.2115C86.7133 80.1458 87.4515 79.4053 88.3974 79.4069ZM87.961 82.4639L87.9626 81.4285L88.3367 81.4293L88.9613 82.4646L89.4125 82.4654L88.735 81.4013C89.0998 81.3616 89.3674 81.1796 89.3674 80.7409C89.3689 80.2493 89.071 80.0447 88.4861 80.0439L87.5674 80.0424L87.5635 82.4631L87.961 82.4639ZM88.9699 80.7106C88.9699 81.0621 88.7062 81.0909 88.4083 81.0902L87.9641 81.0894V80.3823H88.4433C88.6844 80.3831 88.9699 80.4189 88.9699 80.7106Z" fill="#E4002B"/>
</svg>
