<svg width="120" height="120" viewBox="0 0 120 120" fill="none" xmlns="http://www.w3.org/2000/svg">
<mask id="mask0_741_3281" style="mask-type:luminance" maskUnits="userSpaceOnUse" x="0" y="45" width="120" height="28">
<path d="M120 45.7693H0V72.9248H120V45.7693Z" fill="white"/>
</mask>
<g mask="url(#mask0_741_3281)">
<path d="M42.7971 72.2432H35.705V62.8586L27.6489 46.4516H35.5855L39.3108 55.1915L43.0361 46.4516H50.8488L42.7971 62.7152V72.2432Z" fill="#191518"/>
<path d="M70.6784 59.2022C70.6784 67.9812 65.7217 72.9234 59.3193 72.9234C52.5271 72.9234 47.9899 67.9081 47.9899 59.1327C47.9899 51.0353 52.5873 45.7686 59.3193 45.7686C67.0407 45.7686 70.6784 52.3956 70.6784 59.2022ZM55.0804 59.2022C55.0804 62.4994 55.9228 66.618 59.3193 66.618C62.384 66.618 63.5878 63.4664 63.5878 59.2022C63.5878 55.6914 62.384 51.969 59.2592 52.0747C56.0438 52.0747 55.0804 55.9441 55.0804 59.2022Z" fill="#191518"/>
<path d="M79.0554 63.252V72.2403H71.9604V46.4538H82.1816C89.3924 46.4538 91.7654 48.7854 91.7654 53.7986C91.7654 56.7684 90.6557 59.2782 88.1299 60.1004C90.4145 61.1021 91.7951 61.7482 91.7951 66.941C91.7951 70.3085 91.7074 71.4558 92.5469 71.4558V72.2403H85.3658C85.1847 71.6652 85.0036 70.0195 85.0036 67.7277C85.0036 64.358 84.5227 63.2491 81.2153 63.2491L79.0554 63.252ZM79.0554 57.592H81.8491C84.0417 57.592 85.2144 56.948 85.2144 55.156C85.2144 53.3285 84.0142 52.468 82.3591 52.468H79.0554V57.592Z" fill="#191518"/>
<path d="M94.0448 46.4516H101.137V54.7996L107.355 46.4516H115.682L107.78 56.1607L116.522 72.2432H108.019L102.818 61.9633L101.137 64.0762V72.2432H94.0448V46.4516Z" fill="#191518"/>
<path d="M118.273 49.6765C117.932 49.6763 117.598 49.575 117.315 49.3854C117.031 49.1958 116.81 48.9264 116.68 48.6112C116.549 48.296 116.515 47.9492 116.581 47.6146C116.648 47.28 116.812 46.9726 117.053 46.7313C117.295 46.49 117.602 46.3257 117.936 46.259C118.271 46.1923 118.618 46.2263 118.933 46.3567C119.248 46.4871 119.518 46.708 119.708 46.9915C119.897 47.2751 119.999 47.6085 119.999 47.9496C120 48.1765 119.955 48.4012 119.869 48.6109C119.782 48.8205 119.655 49.0111 119.495 49.1715C119.334 49.3319 119.144 49.4591 118.934 49.5458C118.725 49.6324 118.5 49.6768 118.273 49.6765ZM118.273 46.4169C117.971 46.4171 117.675 46.5069 117.424 46.675C117.172 46.8431 116.976 47.082 116.861 47.3614C116.745 47.6408 116.715 47.9482 116.774 48.2448C116.833 48.5413 116.979 48.8137 117.193 49.0275C117.407 49.2413 117.679 49.3868 117.976 49.4458C118.272 49.5047 118.58 49.4744 118.859 49.3586C119.138 49.2429 119.377 49.0469 119.545 48.7955C119.713 48.544 119.803 48.2484 119.803 47.946C119.803 47.7451 119.764 47.5461 119.687 47.3605C119.61 47.1748 119.497 47.0061 119.355 46.8641C119.213 46.7221 119.044 46.6095 118.859 46.5327C118.673 46.456 118.474 46.4166 118.273 46.4169ZM117.631 46.9428H118.482C118.777 46.9428 119.061 46.9993 119.086 47.4303C119.097 47.6758 119.022 47.7671 118.839 47.9069C119.033 48.03 119.038 48.0605 119.066 48.3922C119.086 48.6421 119.051 48.6819 119.16 48.8478H118.87L118.831 48.6066C118.791 48.3828 118.903 48.0271 118.506 48.0271H117.874V48.8514H117.63L117.631 46.9428ZM117.875 47.1601V47.812H118.487C118.65 47.812 118.812 47.7664 118.839 47.5223C118.873 47.1956 118.639 47.1601 118.487 47.1601H117.875Z" fill="#191518"/>
<path d="M25.8022 46.5016H0.00268555V72.3019H25.8022V46.5016Z" fill="#005BA2"/>
<path d="M17.5219 57.1856L16.7838 55.9542L14.09 57.5688L10.6204 55.5804L14.0849 53.5726L16.752 55.1328L17.4763 53.8956L15.5083 52.7425L17.3061 51.6987L16.3442 50.0921L14.5398 51.141L14.5108 48.7992L13.0767 48.8209L13.1303 51.9638L9.72585 53.9463V49.9625L12.3523 48.4413L11.62 47.21L9.72803 48.2878V46.5103H7.80128V50.4376C7.35701 50.5221 6.92525 50.6625 6.5163 50.8556L4.08035 47.5048L2.52157 48.6355L4.95897 51.9921C4.65204 52.3146 4.38768 52.6751 4.17234 53.0648L0.188467 51.7711L0.00158691 52.3847V53.7261L3.57114 54.8996C3.51486 55.3345 3.50976 55.7745 3.55592 56.2106L0.00665672 57.3601V58.916L0.146455 59.3448L4.13033 58.0519C4.33323 58.4396 4.58414 58.8003 4.87712 59.1254L2.39988 62.5298L3.96011 63.6634L6.4091 60.2887C6.8458 60.513 7.31283 60.6726 7.79549 60.7624V64.9295H9.72223L9.71789 62.8412L11.7598 63.9864L12.4617 62.7318L9.71644 61.2165L9.72006 57.2203L13.1752 59.2021L13.1542 62.2958L14.5898 62.3038L14.6036 60.0235L16.405 61.0586L17.3184 59.4194L15.5075 58.3822L17.5219 57.1856ZM7.79549 58.7161C6.49819 58.4104 5.40517 57.1711 5.40517 55.6014C5.40517 54.0318 6.49168 52.7939 7.79549 52.4868V58.7161Z" fill="#F4F7FF"/>
</g>
</svg>
