<svg width="120" height="120" viewBox="0 0 120 120" fill="none" xmlns="http://www.w3.org/2000/svg">
<path fill-rule="evenodd" clip-rule="evenodd" d="M4.04695 71.7383H2.58517V73.6876H1.58905V71.7383H0.148438V76.7606H1.58905V74.6837H2.58517V76.7606H4.04695V71.7383Z" fill="#6D6E70"/>
<path d="M5.12817 76.7606H6.61112V71.7383H5.12817V76.7606Z" fill="#6D6E70"/>
<path fill-rule="evenodd" clip-rule="evenodd" d="M11.6761 74.0699H9.83207V75.066H10.3195V75.7439C10.2349 75.8081 10.0444 75.8703 9.78974 75.8703C9.34524 75.8703 9.11176 75.4258 9.11176 74.2392C9.11176 73.0314 9.4299 72.6292 9.76793 72.6292C10.0014 72.6292 10.1072 72.8197 10.2131 73.4977L11.6543 73.3912C11.4208 72.3111 10.764 71.6537 9.76793 71.6537C8.30679 71.6537 7.62817 72.5446 7.62817 74.1757C7.62817 75.7658 8.09448 76.8465 9.76793 76.8465C10.6582 76.8465 11.3785 76.4219 11.6755 75.9986L11.6761 74.0699ZM16.5073 71.7383H15.0455V73.6876H14.0494V71.7383H12.5869V76.7606H14.0494V74.6837H15.0455V76.7606H16.5073V71.7383ZM21.4448 76.7606V75.1083H21.8258C22.9913 75.1083 23.7546 74.5785 23.7546 73.3906C23.7546 72.3534 23.1606 71.7383 21.7835 71.7383H20.0036V76.7606H21.4448ZM21.4448 74.1109V72.7344H21.7835C22.0593 72.7344 22.271 72.8621 22.271 73.3906C22.271 73.9634 22.1017 74.1109 21.7623 74.1109H21.4448ZM26.0431 73.7087V72.7344H27.5896V71.7383H24.5807V76.7606H27.6108V75.7863H26.0431V74.6837H27.1656V73.7087H26.0431ZM31.3406 74.7472C31.8069 74.5997 32.2514 74.2174 32.2514 73.3707C32.2514 71.993 31.0859 71.7383 30.1963 71.7383H28.501V76.7606H29.9416V74.9807H30.1116L30.8743 76.7606H32.5272L31.3406 74.7472ZM29.9416 74.0269V72.7338H30.2386C30.5991 72.7338 30.7684 72.9666 30.7684 73.39C30.7684 73.8357 30.5985 74.0262 30.2598 74.0262L29.9416 74.0269ZM34.6669 76.7606V74.7472H35.7477V73.7517H34.6669V72.7344H36.1499V71.7383H33.2052V76.7606H34.6669ZM36.9132 74.2385C36.9132 75.9973 37.6553 76.8452 39.0324 76.8452C40.4095 76.8452 41.1516 75.9973 41.1516 74.2385C41.1516 72.501 40.4095 71.653 39.0324 71.653C37.6553 71.653 36.9132 72.501 36.9132 74.2385ZM39.0324 72.6292C39.3929 72.6292 39.668 72.9673 39.668 74.2604C39.668 75.5105 39.3929 75.8703 39.0324 75.8703C38.6931 75.8703 38.3967 75.5105 38.3967 74.2604C38.3967 72.9673 38.6931 72.6292 39.0324 72.6292ZM44.8596 74.7472C45.3259 74.5997 45.7704 74.2174 45.7704 73.3707C45.7704 71.993 44.6262 71.7383 43.7147 71.7383H42.0195V76.7606H43.4819V74.9807H43.6512L44.3927 76.7606H46.0668L44.8596 74.7472ZM43.4613 74.0269V72.7338H43.7577C44.1393 72.7338 44.2875 72.9666 44.2875 73.39C44.2875 73.8357 44.1182 74.0262 43.7788 74.0262L43.4613 74.0269ZM49.3521 75.0442C49.2674 74.175 49.1398 73.4118 48.8223 71.7383H46.6819V76.7606H47.9538C47.9538 74.9377 47.932 73.7087 47.9115 72.9673H47.9538C48.0596 73.7087 48.3136 74.9377 48.6741 76.7606H50.0512C50.4329 74.8966 50.6445 73.7087 50.7715 72.9673H50.7927C50.7927 73.7087 50.7715 74.9178 50.7715 76.7606H52.0435V71.7383H49.9031C49.5638 73.3906 49.4579 74.175 49.3733 75.0442H49.3521ZM55.3063 75.658L55.4545 76.7606H56.9381L55.815 71.7383H53.8445L52.7214 76.7606H54.2044L54.3525 75.658H55.3063ZM55.1582 74.6837H54.5013L54.6495 73.6241C54.6919 73.3284 54.7553 73.0314 54.7977 72.5869H54.8612C54.9042 73.0102 54.9677 73.3284 55.01 73.6241L55.1582 74.6837ZM60.4768 74.8742C60.3498 74.3668 60.0528 73.3072 59.5236 71.7383H57.6584V76.7606H58.9515C58.9515 75.1923 58.9085 74.1321 58.8873 73.6234H58.9297C59.0361 74.1321 59.3325 75.1917 59.8623 76.7606H61.7269V71.7383H60.4344C60.4344 73.3066 60.4767 74.3668 60.5191 74.8742H60.4768ZM64.6928 74.8113C64.6722 75.574 64.6081 75.8485 64.3759 75.8485C64.1636 75.8485 64.0366 75.4675 64.0366 74.2597C64.0366 73.0519 64.1636 72.6498 64.3971 72.6498C64.5876 72.6498 64.6511 72.9031 64.6934 73.6459L66.05 73.6234C66.0083 72.0135 65.1385 71.653 64.3971 71.653C63.8467 71.653 63.4221 71.8236 63.1264 72.1418C62.7236 72.5651 62.5536 73.2642 62.5536 74.1751C62.5536 75.3399 62.7865 75.9979 63.1476 76.4001C63.4856 76.7394 63.9519 76.8459 64.3971 76.8459C65.1174 76.8459 66.0288 76.4424 66.093 74.8312L64.6928 74.8113ZM68.3597 73.7087V72.7344H69.9055V71.7383H66.8973V76.7606H69.9485V75.7863H68.3597V74.6837H69.4822V73.7087H68.3597ZM77.2805 71.7383H75.8187V73.6876H74.822V71.7383H73.3602V76.7606H74.822V74.6837H75.8187V76.7606H77.2805V71.7383ZM80.5645 75.658L80.7127 76.7606H82.1956L81.0725 71.7383H79.1021L77.979 76.7606H79.4619L79.6101 75.658H80.5645ZM80.4382 74.6837H79.7589L79.9077 73.6241C79.9494 73.3284 80.0135 73.0314 80.0552 72.5869H80.1194C80.1611 73.0102 80.2252 73.3284 80.2669 73.6241L80.4382 74.6837ZM85.8831 73.0737C85.862 72.247 85.4168 71.653 84.3784 71.653C83.8704 71.653 83.4887 71.7807 83.2347 72.0135C82.9378 72.2463 82.8114 72.5863 82.8114 72.9666C82.8114 73.39 82.9589 73.7511 83.1071 73.9627C83.2777 74.2167 83.5522 74.4925 83.7857 74.683C84.0185 74.8537 84.1673 74.98 84.2732 75.1077C84.379 75.234 84.4643 75.361 84.4643 75.574C84.4643 75.6368 84.4431 75.7215 84.422 75.7645C84.4015 75.8068 84.3367 75.8485 84.2738 75.8485C84.1263 75.8485 84.0833 75.6792 84.0621 75.3399H82.685C82.7062 76.2308 83.1725 76.8459 84.3373 76.8459C84.9313 76.8459 85.3129 76.6541 85.5669 76.4001C85.8427 76.1044 85.9485 75.701 85.9485 75.3617C85.9485 74.8966 85.7369 74.5573 85.5669 74.3245C85.3969 74.1115 85.1853 73.9422 84.9729 73.7517C84.7824 73.6029 84.6978 73.54 84.5073 73.3707C84.3155 73.2001 84.2526 73.0314 84.2526 72.8621C84.2526 72.8197 84.2526 72.7344 84.295 72.7133C84.305 72.6938 84.3203 72.6776 84.3392 72.6665C84.358 72.6554 84.3796 72.6498 84.4015 72.6504C84.5285 72.6504 84.5708 72.7979 84.5708 73.0737H85.8831ZM91.5628 75.658L91.7322 76.7606H93.2157L92.0926 71.7383H90.1004L88.9985 76.7606H90.4814L90.6296 75.658H91.5628ZM91.4358 74.6837H90.7578L90.9272 73.6241L91.0747 72.5869H91.1389C91.1812 73.0102 91.2235 73.3284 91.2864 73.6241L91.4358 74.6837ZM99.297 74.8742C99.1911 74.3668 98.8737 73.3072 98.3438 71.7383H96.4793V76.7606H97.7723C97.7723 75.1923 97.7306 74.1321 97.7088 73.6234H97.7505C97.8564 74.1321 98.1527 75.1917 98.6825 76.7606H100.548V71.7383H99.2546C99.2546 73.3066 99.2963 74.3668 99.3393 74.8742H99.297ZM103.853 75.658L104 76.7606H105.484L104.361 71.7383H102.391L101.267 76.7606H102.75L102.899 75.658H103.853ZM103.705 74.6837H103.048L103.196 73.6241C103.238 73.3284 103.302 73.0314 103.344 72.5869H103.408C103.451 73.0102 103.514 73.3284 103.557 73.6241L103.705 74.6837ZM108.833 75.0442C108.748 74.175 108.621 73.4118 108.303 71.7383H106.163V76.7606H107.434C107.434 74.9377 107.434 73.7087 107.413 72.9673H107.434C107.56 73.7087 107.794 74.9377 108.155 76.7606H109.553C109.935 74.8966 110.146 73.7087 110.252 72.9673H110.295C110.263 74.2314 110.249 75.496 110.252 76.7606H111.524V71.7383H109.405C109.066 73.3906 108.938 74.175 108.854 75.0442H108.833ZM113.94 73.7087V72.7344H115.486V71.7383H112.477V76.7606H115.507V75.7863H113.94V74.6837H115.063V73.7087H113.94ZM117.16 71.7595H116.037V72.12H116.334V73.2213H116.863V72.12H117.16V71.7595ZM118.262 72.6292C118.22 72.4375 118.198 72.2899 118.156 72.1629L118.072 71.7595H117.245V73.2213H117.732V72.755V72.204C117.775 72.4157 117.817 72.5863 117.859 72.755L117.966 73.2213H118.537L118.644 72.755C118.693 72.5743 118.729 72.3901 118.75 72.204H118.771V73.2213H119.258V71.7595H118.453L118.368 72.1629C118.326 72.2893 118.305 72.4375 118.262 72.6292Z" fill="#6D6E70"/>
<path fill-rule="evenodd" clip-rule="evenodd" d="M15.215 55.9519L19.7921 49.0862L18.5631 55.9519H15.215ZM9.23891 55.9519H2.58554L4.08965 61.334H5.5944L0 69.3016H6.54818L11.8033 61.334H17.8845L16.6556 69.3228H26.128L30.4934 39H21.0005L9.23891 55.9519Z" fill="#A5333A"/>
<path fill-rule="evenodd" clip-rule="evenodd" d="M65.9649 63.2198C65.9649 62.7323 66.4306 61.3981 67.1939 60.5502C67.639 60.0204 68.1258 59.7234 68.9314 59.7234C69.8211 59.7234 70.3304 60.0204 71.1559 60.9735C70.1392 62.5636 68.4228 64.1729 66.9187 64.1729C66.4094 64.1729 65.9649 63.8349 65.9649 63.2198ZM31.8693 61.334C32.5685 61.334 32.9283 61.4604 32.9283 62.0543C32.9283 62.1819 32.9071 62.3513 32.8436 62.6053L31.1272 67.5211C30.7885 68.5384 30.6404 68.5807 30.6404 68.8353C30.6404 69.2798 31.0002 69.3228 31.6782 69.3228H36.2765C37.3149 69.3228 37.3149 69.2805 37.8871 67.861L39.3918 63.4327C39.8363 62.0761 40.2815 61.7362 41.1082 61.7362C41.6162 61.7362 41.9979 61.969 41.9979 62.4154L40.4931 67.5217C40.1545 68.6031 40.0698 68.6031 40.0698 68.836C40.0698 69.2805 40.4085 69.3234 41.1082 69.3234H45.6847C46.8502 69.3234 46.872 69.1541 47.2953 67.8617L48.8212 63.4333C49.2664 62.0768 49.7109 61.7368 50.5376 61.7368C51.0463 61.7368 51.385 61.9696 51.385 62.4161L49.8808 67.5224C49.5415 68.6038 49.478 68.6038 49.478 68.8366C49.478 69.2811 49.8173 69.3241 50.4953 69.3241H55.1994C56.1532 69.3241 56.5342 69.3241 56.5342 68.3697C56.5342 68.0951 56.4707 67.8822 56.259 67.48L57.7843 62.5001C58.3994 60.6361 58.6111 59.9582 58.6111 59.1102C58.6111 56.9275 56.8735 55.4869 54.288 55.4869C52.7415 55.4869 51.5973 56.0167 50.156 57.034C48.7577 55.8685 47.4653 55.3175 45.6219 55.3175C43.6931 55.3175 42.3372 55.9109 41.1294 56.864C40.8536 56.186 40.6625 55.932 40.0698 55.932H27.017V56.4195L27.5045 56.61L27.2928 60.6361H26.8477L26.7207 61.3353H31.8693V61.334ZM69.0161 68.2632C68.8044 68.7077 68.8045 68.8142 68.8045 68.8783C68.8045 69.2593 69.1008 69.3228 69.6947 69.3228H74.8017C75.4578 69.3228 75.6913 69.09 75.6913 68.75C75.6913 68.5384 75.5855 68.3055 75.5431 67.818L78.8066 57.8158C79.1036 56.8839 79.1671 56.6081 79.1671 56.4387C79.1671 55.9724 78.8278 55.9301 78.1498 55.9301H73.9749C73.0217 55.9301 72.8312 56.0359 72.5131 56.9262C71.1995 55.6966 69.6312 54.9763 67.809 54.9763C63.804 54.9763 59.3115 59.3418 59.3115 65.5077C59.3115 68.2414 60.774 69.7243 63.6982 69.7243C65.9867 69.7243 67.7878 68.8135 69.4831 67.1811L69.0161 68.2632ZM104.107 63.2198C104.107 62.7323 104.594 61.3981 105.336 60.5502C105.802 60.0204 106.311 59.7234 107.138 59.7234C108.028 59.7234 108.536 60.0204 109.363 60.996C108.324 62.5629 106.587 64.1729 105.061 64.1729C104.552 64.1729 104.107 63.8349 104.107 63.2198ZM107.201 68.2632C107.01 68.7077 106.967 68.8142 106.967 68.8783C106.967 69.2593 107.307 69.3228 107.879 69.3228H113.007C113.664 69.3228 113.897 69.09 113.897 68.75C113.897 68.5384 113.791 68.3055 113.749 67.818L116.969 57.8158C117.288 56.8839 117.372 56.6081 117.372 56.4387C117.372 55.9724 117.034 55.9301 116.356 55.9301H112.181C111.227 55.9301 110.994 56.0359 110.698 56.9262C109.363 55.6966 107.816 54.9763 105.994 54.9763C101.989 54.9763 97.475 59.3418 97.475 65.5077C97.475 68.2414 98.9585 69.7243 101.883 69.7243C104.171 69.7243 105.93 68.8135 107.646 67.1811L107.201 68.2632ZM88.2142 56.651C88.2142 56.0789 88.0443 55.9307 87.3881 55.9307H83.7641C82.4935 55.9307 82.4935 55.9307 81.7937 57.9858L78.4667 67.5217C78.4455 67.6282 78.0639 68.7718 78.0639 68.836C78.0639 69.2805 78.4025 69.3234 79.0812 69.3234H83.6583C84.8237 69.3234 84.8661 69.1541 85.2689 67.8617L86.816 63.4333C87.2605 62.0768 87.7062 61.7368 88.5119 61.7368C89.0205 61.7368 89.4015 61.9908 89.4015 62.4372L87.8967 67.5224C87.5581 68.6038 87.4522 68.6038 87.4522 68.8366C87.4522 69.2811 87.7909 69.3241 88.4907 69.3241H93.1948C94.1479 69.3241 94.5084 69.3241 94.5084 68.3697C94.5084 68.0951 94.4873 67.8822 94.2762 67.48L95.7797 62.5001C96.3948 60.6361 96.586 59.9582 96.586 59.1102C96.586 56.9275 94.8901 55.4869 92.3052 55.4869C90.7587 55.4869 89.5708 56.0167 88.1514 57.034L88.2142 56.651ZM118.855 58.05C118.721 58.0517 118.588 58.0266 118.464 57.976C118.34 57.9255 118.227 57.8507 118.132 57.7559C118.037 57.661 117.962 57.5482 117.912 57.424C117.861 57.2998 117.836 57.1668 117.838 57.0327C117.838 56.4817 118.283 56.0366 118.855 56.0366C119.427 56.0366 119.872 56.4817 119.872 57.0327C119.872 57.6048 119.406 58.05 118.855 58.05ZM118.855 58.1988C119.491 58.1988 119.999 57.6683 119.999 57.0333C119.999 56.3977 119.491 55.889 118.855 55.889C118.22 55.889 117.69 56.3977 117.69 57.0333C117.692 57.3416 117.816 57.6365 118.034 57.8545C118.252 58.0724 118.547 58.1961 118.855 58.1988ZM119.046 57.1174C119.258 57.0962 119.427 57.0115 119.427 56.7569C119.427 56.5664 119.322 56.4394 118.983 56.4394H118.432V57.6901H118.581V57.1174H118.877L119.237 57.6901H119.428L119.046 57.1174ZM118.58 56.9692V56.5664H118.94C119.11 56.5664 119.3 56.6087 119.3 56.7569C119.3 56.9904 119.003 56.9692 118.812 56.9692H118.58Z" fill="#A5333A"/>
</svg>
