<svg width="120" height="120" viewBox="0 0 120 120" fill="none" xmlns="http://www.w3.org/2000/svg">
<g clip-path="url(#clip0_741_3309)">
<path d="M27.3309 47.3066H0.000732422V72.6934L27.3309 47.3066Z" fill="#44C8F5"/>
<path d="M13.6631 47.3066H0V60.0059L13.6631 47.3066Z" fill="#231F20"/>
<path d="M65.4947 52.8168L61.9269 67.1779H68.2305L71.7955 52.8168H65.4947ZM51.0987 61.1398H49.6531L51.9842 56.9972L52.74 61.1402L51.0987 61.1398ZM50.2019 52.8152L42.0959 67.1755H46.2645L47.6102 64.7822H53.3976L53.8285 67.1759H59.9815L57.3665 52.8156L50.2019 52.8152ZM94.281 52.8168L90.7229 67.1779H97.0249L100.583 52.8168H94.281ZM91.4642 52.8168H85.0051L79.5991 57.5145L80.779 52.8168H74.7375L71.1794 67.1779H77.2019L78.4321 62.2203L81.6524 67.1779H88.9422L83.543 59.6572L91.4642 52.8168ZM37.1493 59.343C37.1493 59.343 36.7402 64.0078 32.7922 64.0078H30.5586L32.5261 56.2617H34.5532C35.2784 56.2662 37.378 56.4559 37.1493 59.343ZM36.83 52.8237L35.1995 52.8184H27.3129L23.7544 67.1734H31.5858L34.6841 67.1779C39.0463 67.1779 43.3394 63.9085 43.3394 58.9007C43.3394 53.0086 36.8296 52.8233 36.8296 52.8233M115.637 52.8148L113.535 61.2708L110.734 52.8148H103.724L100.163 67.1779H104.522L106.645 58.6477L109.454 67.1779H116.434L120 52.8148H115.637Z" fill="#00A0E4"/>
</g>
<defs>
<clipPath id="clip0_741_3309">
<rect width="120" height="26" fill="white" transform="translate(0 47)"/>
</clipPath>
</defs>
</svg>
