<svg width="120" height="120" viewBox="0 0 120 120" fill="none" xmlns="http://www.w3.org/2000/svg">
<path fill-rule="evenodd" clip-rule="evenodd" d="M38.2164 58.5214C37.7183 59.1103 37.2203 59.7435 36.3145 59.7435C35.4093 59.7435 36.2697 58.7474 34.9561 58.8837C33.6438 59.0195 34.0509 58.9746 33.734 58.748C33.4171 58.5214 33.2248 58.7935 33.0548 59.0649C31.923 60.8765 30.6854 61.7798 29.3874 63.0044C28.5588 63.7851 27.991 64.0453 27.7339 63.8324C27.8752 63.706 28.0178 63.5796 28.1647 63.4564C29.5679 62.2791 31.1529 59.835 31.1529 58.6578C31.1529 57.4805 29.2965 57.7526 28.3004 59.111C27.7439 59.8699 26.609 61.8433 26.236 63.4389C25.8482 63.7334 25.5263 63.9494 25.2674 64.0907C24.7693 64.3634 24.1804 64.5894 24.8141 63.0947C25.4485 61.6018 25.8557 60.6045 26.0368 60.0616C26.218 59.5181 25.2674 59.4279 24.5882 59.9259C23.909 60.4233 22.8226 61.9622 23.1849 60.7856C23.5473 59.609 23.0492 58.2506 21.7817 59.2467C20.5142 60.2421 20.1519 60.8771 19.6538 61.3739C19.1558 61.8726 18.9292 61.9174 19.4727 61.0116C20.0162 60.107 20.6045 59.2467 20.9213 58.7486C21.2382 58.2506 20.7856 56.9831 19.9707 57.798C19.7447 58.024 19.0201 59.1377 18.2643 60.3822C18.2936 60.1052 18.1062 59.807 17.5708 59.6545C17.1145 59.5243 16.5897 59.4696 16.0536 59.4571C16.777 57.3436 17.7065 54.4717 17.7065 53.9961C17.7065 53.3624 16.7104 52.6832 15.8052 53.5883C15.3122 54.0814 12.6309 57.1929 10.1301 60.1139C9.94021 60.137 9.74923 60.1499 9.55796 60.1525C8.65216 60.1525 6.93205 59.609 6.93205 60.5148C6.93205 61.3939 7.99786 61.59 8.92981 61.5165C7.82411 62.8104 6.72053 64.1061 5.6191 65.4037C4.62302 66.5809 6.16258 67.0329 6.84116 66.2186C8.1591 64.638 9.65882 62.8637 11.0247 61.2575C12.1054 61.1174 13.2727 60.973 13.8286 60.968C13.6948 61.3991 13.5841 61.8369 13.4968 62.2797C13.2254 63.7278 12.7722 63.5927 12.4105 63.5479C12.0482 63.5018 11.4599 63.7739 12.0482 64.4524C12.6365 65.1323 12.1839 66.8524 13.4514 66.8524C14.5384 66.8524 14.0851 64.9057 15.4435 61.1922L15.5556 60.8821C16.1781 60.8529 16.797 60.8516 17.2545 60.9662C17.5434 61.039 17.8098 60.9674 17.996 60.8261C17.1686 62.2088 16.3699 63.6419 16.213 64.1356C15.8961 65.1316 16.1676 66.0823 17.1636 66.0823C18.1597 66.0823 17.7974 65.3576 18.8389 64.2258C19.8798 63.094 20.6499 62.4603 20.6499 62.4603C20.6499 62.4603 20.0162 63.9083 20.0162 64.4518C20.0162 64.9953 20.922 65.5388 21.6005 64.9057C22.2797 64.2707 23.0492 63.5012 23.0492 63.5012C23.0492 63.5012 22.2343 66.0362 23.955 66.0362C24.854 66.0362 25.5793 65.6521 26.2678 65.1179C26.4533 65.4902 26.8194 65.7199 27.4407 65.7199C28.9796 65.7199 31.7419 62.8674 31.7419 62.8674C31.7419 62.8674 31.3341 64.7239 31.1075 65.3128C30.8815 65.9011 32.1042 66.1725 32.5568 65.2667C33.0094 64.3622 34.0963 60.8298 34.7749 60.785C35.4541 60.7402 35.1372 61.3285 36.858 61.1922C36.858 61.1922 35.771 64.1362 35.6353 65.0856C35.4996 66.0362 36.6768 66.2641 36.9034 65.3582C37.13 64.4524 38.56 60.4289 39.5293 58.9746C40.0728 58.1591 38.7144 57.9331 38.2164 58.5214ZM40.5702 57.1169C40.774 57.1169 40.9694 57.036 41.1134 56.8919C41.2575 56.7479 41.3385 56.5525 41.3385 56.3487C41.3385 56.145 41.2575 55.9496 41.1134 55.8055C40.9694 55.6614 40.774 55.5805 40.5702 55.5805C40.3665 55.5805 40.1711 55.6614 40.027 55.8055C39.8829 55.9496 39.802 56.145 39.802 56.3487C39.802 56.5525 39.8829 56.7479 40.027 56.8919C40.1711 57.036 40.3665 57.1169 40.5702 57.1169ZM41.7929 61.1473C41.7929 61.1473 41.9286 61.9168 42.5624 61.9168C43.1961 61.9168 43.8299 60.7396 44.2831 60.061C44.7357 59.3818 44.6454 58.8389 44.3279 58.6123C44.0111 58.3857 43.5585 58.0688 43.1059 58.3409C42.6527 58.6123 38.3521 61.3285 38.0346 64.7699C37.7887 67.4351 42.2903 65.766 43.0598 64.9063C43.0598 64.9063 43.5578 67.5764 46.5909 64.4991C46.5909 64.4991 46.7727 67.1692 48.4019 65.4952C50.0317 63.8199 51.209 62.37 51.209 62.37C51.209 62.37 50.3941 65.314 51.7973 65.314C52.5219 65.314 55.3284 62.2355 55.3284 62.2355C55.3284 62.2355 54.5589 65.268 54.6043 65.903C54.6492 66.5367 55.1018 67.0802 55.5095 66.129C55.9167 65.1783 57.3205 61.7369 57.864 60.696C58.4075 59.6545 57.7283 58.5227 56.5959 59.3376C55.4641 60.1525 53.4265 62.0992 53.0648 62.3706C52.7025 62.6433 53.0193 62.0544 53.3362 61.3746C53.6531 60.696 54.6043 58.6129 53.6076 58.6584C52.6116 58.7038 50.9363 60.7408 49.4876 62.1889C49.4876 62.1889 49.3065 61.4655 49.8499 60.6045C50.3934 59.7447 50.6194 58.7486 49.8954 58.6584C49.1707 58.5675 49.035 59.0207 49.035 59.0207C49.035 59.0207 47.1331 58.5227 45.0962 60.8771C43.7807 62.3968 44.0098 62.7323 44.0098 62.7323C44.0098 62.7323 41.5651 64.9965 40.1612 64.9965C38.7599 64.9953 40.48 62.3239 41.7929 61.1473ZM61.4879 63.2298C61.4879 63.2298 60.1288 63.9544 60.1288 64.4979C60.1288 65.0401 60.808 65.0401 62.121 65.0401C63.434 65.0401 65.1995 64.7239 65.1995 63.0486C65.1995 61.3733 62.5281 60.4221 62.5281 58.4305C62.5281 56.4384 65.3807 54.8085 68.0968 54.8085C70.813 54.8085 70.7682 56.5741 70.0884 56.9364C69.4098 57.2987 68.1865 57.2085 68.2332 56.2124C68.2332 56.2124 64.5197 55.578 64.5197 58.0682C64.5197 60.1058 67.5534 60.2409 67.5534 62.6856C67.5534 65.1304 64.2937 66.67 61.7132 66.67C59.1321 66.67 58.001 65.7193 58.001 64.9492C58.001 64.1791 59.0879 63.2298 61.4879 63.2298Z" fill="#00A0E4"/>
<path fill-rule="evenodd" clip-rule="evenodd" d="M86.523 59.0643C85.5724 59.3812 82.8556 61.7357 82.3121 62.324C82.3121 62.324 82.8107 60.3324 83.2627 59.6078C83.7166 58.8831 82.6744 58.4305 82.0407 58.8831C81.4069 59.3357 77.9212 62.9571 77.2862 63.7266C77.2862 63.7266 77.8297 61.6902 78.6447 60.9649C79.4608 60.2403 78.9622 59.5617 78.5544 59.652C78.5544 59.652 78.6907 58.113 75.9278 59.0637C75.9278 59.0637 74.0857 58.9734 72.596 59.0139C73.1662 57.892 73.7253 56.886 74.0272 56.528C74.9766 55.3962 73.8 54.8534 73.0299 55.5774C72.7566 55.8358 71.7991 57.4482 70.9518 59.0469C70.1114 59.0444 68.7561 59.096 68.0956 59.426C67.0995 59.924 67.1437 61.3721 68.0956 61.3721C68.593 61.3721 69.0462 60.8286 69.0462 60.8286L70.0846 60.7676C70.0385 60.866 69.9937 60.9618 69.9508 61.0558C69.091 62.9565 69.0462 63.772 68.5924 63.8175C68.1398 63.8623 67.6878 64.135 67.6878 65.1304C67.6878 66.1259 68.1404 66.67 69.0462 65.8538C69.9508 65.0389 70.4046 63.8623 71.0826 62.2331C71.26 61.806 71.5059 61.2613 71.7804 60.6779C72.6302 60.6369 73.4756 60.6026 73.9799 60.6026C73.9799 60.6026 71.1734 62.8214 71.1734 64.3149C71.1734 65.809 72.939 66.3979 75.2032 64.7233C75.2032 64.7233 75.9727 68.6615 80.5907 62.0071C80.5907 62.0071 79.7746 65.131 81.0433 65.131C81.6771 65.131 84.5744 62.0525 85.1179 61.5999C85.1179 61.5999 84.0309 64.5875 84.077 65.357C84.1218 66.1265 84.0309 66.2168 84.5296 66.2168C85.027 66.2168 85.7068 64.0441 86.2952 62.5493C86.8835 61.0564 87.0646 60.9649 87.0646 60.4215C87.0665 59.8805 87.4743 58.748 86.523 59.0643ZM114.592 55.1261C115.046 54.5826 114.05 53.9488 113.234 54.9903C112.419 56.0319 111.513 57.9786 111.106 58.7026C111.106 58.7026 109.021 57.8447 107.255 59.9166C106.121 58.641 104.315 59.6078 104.315 59.6078C104.496 58.2948 103.229 58.5663 102.821 59.0195C102.414 59.4721 100.332 61.8265 99.8779 62.4155C99.4253 63.0038 99.0182 63.4564 98.7461 63.2304C98.4747 63.0044 99.2448 61.5097 99.6519 60.5142C100.059 59.5181 99.0636 59.6993 99.0636 59.6993C99.0636 59.6993 99.3811 58.4766 98.2487 58.6123C97.1163 58.748 94.1934 59.7771 92.8157 63.909C92.7627 64.0656 92.7218 64.2261 92.6931 64.389C92.4914 64.5191 92.2554 64.529 92.045 64.1723C91.9087 63.8878 91.824 63.381 92.0911 62.5051C92.5885 60.8759 94.5813 56.665 95.2599 55.6235C95.9397 54.5826 94.8988 53.9034 94.219 54.6728C93.5391 55.4423 92.0463 58.8831 92.0463 58.8831C92.0463 58.8831 90.1898 58.3851 88.3788 60.3318C87.2178 61.5794 86.386 63.5466 86.386 64.3616C86.386 65.1765 87.1786 67.8242 90.0765 64.7457C90.6966 65.7803 91.0166 66.0126 91.5127 65.9652C93.7514 64.9947 92.6047 65.7187 93.4215 65.7187C95.5624 65.7187 96.2329 65.1628 96.8225 64.2937C96.9588 66.4216 98.1578 65.7648 98.9273 65.085C99.6968 64.4064 101.373 62.7311 101.373 62.7311C101.373 62.7311 100.966 64.6778 100.648 65.3122C100.332 65.946 101.916 65.8096 102.006 65.3122C102.097 64.8135 102.731 63.7266 103.365 62.4597C104.192 60.8074 105.493 60.4221 106.398 60.6032C106.532 60.63 106.645 60.6337 106.743 60.6225C106.625 60.8112 106.509 61.0154 106.398 61.2376C104.542 64.9499 104.995 67.3485 108.39 65.2661C108.39 65.2661 108.432 67.6555 111.741 64.6778C112.194 64.2707 112.057 63.6817 111.334 64.0895C110.609 64.4979 109.748 64.4979 110.247 63.5921C110.746 62.6863 112.971 57.0728 114.592 55.1261Z" fill="#00A0E4"/>
<path fill-rule="evenodd" clip-rule="evenodd" d="M47.4525 60.8298C47.4525 60.8298 44.7195 62.7628 45.1441 63.6824C45.4149 64.2707 46.8187 62.1428 47.4525 60.8298ZM76.2012 60.785C76.2012 60.785 74.933 60.9213 74.1181 62.0083C73.3032 63.094 72.4889 64.6784 73.6655 64.0447C74.8422 63.4109 76.1103 62.0531 76.2012 60.785ZM90.6891 60.6038C90.6891 60.6038 89.6931 60.9213 88.8775 62.1434C88.0626 63.3655 87.747 65.4031 88.8327 64.2265C89.9197 63.0486 90.5528 61.872 90.6891 60.6038ZM97.1176 60.6499C97.1176 60.6499 96.0767 61.4648 96.3929 62.7317C96.3929 62.7317 95.3968 63.9999 94.7189 64.0447C94.0391 64.0895 95.7592 60.3772 97.1176 60.6499ZM108.889 60.4688C108.39 60.7402 107.258 62.4603 107.123 63.3649C106.987 64.2707 107.258 64.407 108.028 63.5921C108.797 62.7772 109.206 61.6454 109.386 60.9207C109.567 60.1961 109.231 60.2814 108.889 60.4688ZM13.4066 59.6084C13.1052 59.6358 12.7155 59.6968 12.2941 59.7678C14.0005 57.7688 15.263 56.3033 15.263 56.3033C15.3084 56.6656 14.9007 58.1143 14.7195 58.5214C14.5768 58.8521 14.4429 59.1865 14.318 59.5243C13.9855 59.5524 13.6755 59.5835 13.4066 59.6084ZM29.4789 59.8804C29.8387 60.16 28.7873 61.2507 27.8503 62.0949C28.5289 60.1052 29.0711 59.5629 29.4789 59.8804Z" fill="white"/>
</svg>
