<svg width="120" height="120" viewBox="0 0 120 120" fill="none" xmlns="http://www.w3.org/2000/svg">
<g clip-path="url(#clip0_741_3322)">
<path d="M31.0249 47.7183C31.0249 43.986 31.9348 41.7076 36.7749 41.7076H44.8344C47.5685 41.7076 49.1414 42.3325 49.1414 44.4851V45.1925H58.3232C58.4229 36.6994 56.7113 33.9913 43.6341 33.9913H34.7903C26.5142 33.9913 21.5918 36.0745 21.5918 44.8409V53.5206C21.5918 62.3045 26.5142 64.3702 34.7903 64.3702H43.6341C46.1056 64.4137 48.5766 64.2541 51.022 63.8928C50.9494 63.451 50.9132 63.004 50.9137 62.5562C50.89 61.4947 51.1065 60.4415 51.5469 59.4757C51.9874 58.5099 52.6405 57.6565 53.4572 56.9795C54.846 55.8716 56.5354 55.2077 58.3059 55.0743C58.3059 54.4754 58.3319 53.8418 58.3059 53.1734H49.1414V53.8852C49.1414 56.0551 47.5685 56.6583 44.8344 56.6583H36.7575C31.9175 56.6583 31.0076 54.3799 31.0076 50.652L31.0249 47.7183Z" fill="#1D5798"/>
<path d="M87.71 33.9913V45.0319H69.3464V33.9913H60.156V55.0135C62.0282 55.072 63.8281 55.7512 65.2734 56.9448C66.0507 57.6157 66.6697 58.4512 67.0856 59.3908C67.5014 60.3304 67.7038 61.3508 67.6782 62.3782C67.6787 63.0082 67.5971 63.6356 67.4356 64.2444L67.4052 64.3485H69.3421V53.3167H87.7056V64.3702H96.8918V33.9913H87.71Z" fill="#D8282F"/>
<path d="M59.4974 57.8908C62.7862 57.8908 64.8271 59.6268 64.8271 62.4086C64.8271 64.1098 63.8608 65.6678 62.1103 66.7918L61.5556 67.1434L61.9889 67.6251L63.2542 68.9791L63.6875 69.4565L64.0775 68.9271L65.3774 67.1347L65.4034 67.1043H70.0354L69.9401 67.2302L66.4737 71.8608L66.1964 72.2297L66.5127 72.5638L70.1784 76.4437L70.3041 76.5739H65.1998L65.1737 76.5478L64.0992 75.3283L63.7395 74.916L63.3279 75.2806C61.9809 76.4739 60.2237 77.0964 58.4272 77.0165C55.303 77.0165 51.9276 75.2806 51.9276 71.5266C51.9531 70.5352 52.2568 69.571 52.8039 68.7444C53.3511 67.9178 54.1195 67.2622 55.0214 66.8526L55.6497 66.5401L55.1947 66.0063C54.3281 64.9691 53.7648 64.0274 53.7648 62.5345C53.7648 59.6528 55.9313 57.8648 59.4801 57.8648M59.1855 64.8736L59.5494 64.6393C60.6024 63.9579 61.1353 63.2853 61.1353 62.6386C61.1353 61.7055 60.4464 61.085 59.4281 61.085C59.21 61.0698 58.9912 61.1004 58.7856 61.1747C58.58 61.249 58.3921 61.3654 58.2339 61.5165C58.0757 61.6676 57.9507 61.85 57.8668 62.0522C57.783 62.2544 57.7421 62.4718 57.7469 62.6907C57.7469 63.3981 58.3492 64.0708 58.8735 64.5742L59.1855 64.8736ZM58.5615 73.4839C59.3942 73.4714 60.1955 73.1639 60.8234 72.6159L61.2913 72.2557L60.8883 71.8217L58.4965 69.2178L58.1845 68.8793L57.7989 69.1267C56.9972 69.6431 56.2173 70.2377 56.2173 71.3617C56.2173 72.7027 57.4089 73.5056 58.5615 73.5056M59.4801 57.3397C55.6757 57.3397 53.2188 59.3881 53.2188 62.5475C53.2188 64.2053 53.8428 65.2642 54.7787 66.3665C53.787 66.8231 52.9429 67.5491 52.3424 68.462C51.7419 69.3749 51.4091 70.4381 51.3816 71.531C51.3816 75.6798 55.0257 77.5677 58.4098 77.5677C60.3427 77.6404 62.2288 76.9625 63.6745 75.6755L64.7491 76.895L64.9354 77.1077H71.5867L70.5901 76.0531L66.9416 72.1819L70.4081 67.547L71.162 66.5488H65.1737L64.9874 66.8005L63.6875 68.5972L62.4179 67.2432C64.3201 66.028 65.3904 64.2964 65.3904 62.3999C65.3904 59.323 63.0852 57.3353 59.5148 57.3353M59.2894 64.2053C58.8258 63.7713 58.3318 63.2071 58.3318 62.7167C58.3267 62.5693 58.3532 62.4226 58.4095 62.2863C58.4658 62.15 58.5506 62.0273 58.6581 61.9266C58.7657 61.8259 58.8935 61.7494 59.0331 61.7023C59.1726 61.6551 59.3206 61.6385 59.4671 61.6535C60.0304 61.6535 60.6284 61.9182 60.6284 62.6647C60.6284 62.9251 60.442 63.4588 59.2894 64.2053ZM58.6005 72.9631C58.3776 72.9772 58.154 72.947 57.9428 72.8743C57.7316 72.8015 57.5368 72.6876 57.3697 72.5392C57.2026 72.3908 57.0664 72.2107 56.969 72.0094C56.8716 71.808 56.815 71.5894 56.8023 71.366C56.8023 70.5718 57.2962 70.1292 58.1325 69.591L60.5287 72.195C59.9955 72.6685 59.3129 72.9389 58.6005 72.9588" fill="#D8282F"/>
<path d="M9.18177 73.3841V73.6792C9.18177 74.7685 9.18177 75.7493 8.21983 76.5087C7.25789 77.2682 6.11829 77.2378 4.90937 77.2378C2.07121 77.2378 0 77.1076 0 73.4665V70.88C0 67.586 1.85022 67.1043 4.90937 67.1043C7.77353 67.1043 9.10811 67.3864 9.16444 70.3765V70.7585H6.30028V70.3765C6.20496 69.4825 5.55066 69.4174 4.60172 69.4174C3.02015 69.4174 2.86849 69.8818 2.86849 71.3053V72.8589C2.86849 74.3475 2.93782 74.9204 4.60172 74.9204C5.75865 74.9204 6.33494 74.8379 6.33494 73.6705V73.3754L9.18177 73.3841Z" fill="#1D5798"/>
<path d="M17.4145 73.6792C17.4145 76.5478 16.7905 77.2378 13.7574 77.2378C10.7242 77.2378 10.1133 76.4697 10.1133 73.6792C10.1133 70.8887 10.7112 70.1031 13.7574 70.1031C16.8035 70.1031 17.4145 70.7281 17.4145 73.6792ZM12.5051 73.6792C12.5051 75.1938 12.6438 75.4846 13.8051 75.4846C14.9663 75.4846 15.0313 75.1938 15.0313 73.6792C15.0313 72.1646 14.9187 71.8564 13.8051 71.8564C12.6915 71.8564 12.5051 72.1646 12.5051 73.6792Z" fill="#1D5798"/>
<path d="M25.6604 73.6792C25.6604 76.5478 25.0364 77.2378 22.0032 77.2378C18.9701 77.2378 18.3591 76.4697 18.3591 73.6792C18.3591 70.8887 18.9571 70.1031 22.0032 70.1031C25.0494 70.1031 25.6604 70.7281 25.6604 73.6792ZM20.751 73.6792C20.751 75.1938 20.894 75.4846 22.0509 75.4846C23.2078 75.4846 23.2728 75.1938 23.2728 73.6792C23.2728 72.1646 23.1645 71.8564 22.0509 71.8564C20.9373 71.8564 20.751 72.1646 20.751 73.6792Z" fill="#1D5798"/>
<path d="M26.8997 70.1856H29.2915L29.2352 71.2879H29.3478C29.6252 70.3418 30.3921 70.1031 31.4364 70.1031C33.1999 70.1031 34.2009 70.8236 34.2009 72.668V74.2607C34.2009 76.3872 33.4383 77.2378 31.4364 77.2378C30.5698 77.2378 29.7941 77.0643 29.4042 76.1095H29.2915V80.1759H26.8997V70.1856ZM29.2915 73.6575C29.2915 74.8249 29.3782 75.4629 30.4874 75.4629C31.4754 75.4629 31.809 75.2372 31.809 73.6575C31.809 72.2991 31.7527 71.8347 30.4874 71.8347C29.4735 71.8347 29.2915 72.1819 29.2915 73.6575Z" fill="#1D5798"/>
<path d="M42.2865 74.8336C42.2865 75.8839 41.9225 76.4827 41.2985 76.8256C40.6746 77.1684 39.782 77.2596 38.7247 77.2596C35.8432 77.2596 35.1499 76.3048 35.1499 73.7009C35.1499 71.0145 35.7869 70.1249 38.7247 70.1249C41.4632 70.1249 42.2865 70.854 42.2865 73.7009V74.0828H37.5418C37.5418 75.3067 37.7367 75.6669 38.7247 75.6669C39.4613 75.6669 39.9336 75.5887 39.9336 74.8553L42.2865 74.8336ZM39.8903 72.8026C39.8903 71.7653 39.4873 71.7002 38.6814 71.7002C37.8754 71.7002 37.5678 71.8825 37.5418 72.8026H39.8903Z" fill="#1D5798"/>
<path d="M47.3735 72.8937C47.3735 72.4033 47.4038 71.8564 46.7495 71.8564C46.0259 71.8564 45.8569 72.4033 45.8569 72.9761V77.1597H43.4651V70.1856H45.7876V71.2055H45.8873C46.2079 70.4113 46.8319 70.1031 47.7245 70.1031C49.3927 70.1031 49.5314 71.4051 49.5314 72.681V73.2278H47.3649L47.3735 72.8937Z" fill="#1D5798"/>
<path d="M82.2416 77.1597H79.5898V73.2539H76.1277V77.1597H73.4758V67.1954H76.1277V70.9407H79.5898V67.1954H82.2416V77.1597Z" fill="#D8282F"/>
<path d="M88.2256 77.1597L88.3036 75.8187H88.1996C87.879 76.895 87.086 77.2379 86.1154 77.2379C84.7375 77.2379 83.7539 76.652 83.7539 74.9551V70.1813H86.0374V74.3519C86.0374 74.9898 86.1024 75.4932 86.8737 75.4932C87.4804 75.4932 88.1736 75.1764 88.1736 74.4821V70.1856H90.4528V77.1597H88.2256Z" fill="#D8282F"/>
<path d="M94.2746 70.1856V71.4875H94.3873C94.7209 70.3896 95.3969 70.1075 96.4715 70.1075C98.0141 70.1075 98.716 70.8409 98.716 72.3425V77.1641H96.4325V72.872C96.4325 72.1949 96.2332 71.8608 95.4922 71.8608C94.4696 71.8608 94.2963 72.4727 94.2963 73.3233V77.1641H92.0171V70.1856H94.2746Z" fill="#D8282F"/>
<path d="M105.406 71.8565H102.767V74.9812C102.767 75.4151 102.858 75.567 103.283 75.567C103.881 75.567 103.855 75.1331 103.881 74.66V74.2911H105.701V74.9161C105.701 76.8126 104.995 77.2379 103.136 77.2379C101.68 77.2379 100.471 77.0556 100.471 75.298V71.8565H99.6042V70.1856H100.471V68.7101H102.754V70.1856H105.393L105.406 71.8565Z" fill="#D8282F"/>
<path d="M113.089 74.8336C113.089 75.8839 112.742 76.4827 112.144 76.8256C111.374 77.1671 110.532 77.316 109.692 77.2596C106.944 77.2596 106.281 76.3048 106.281 73.7009C106.281 71.0145 106.892 70.1249 109.692 70.1249C112.291 70.1249 113.089 70.854 113.089 73.7009V74.0828H108.561C108.561 75.3067 108.751 75.6669 109.692 75.6669C110.394 75.6669 110.844 75.5887 110.844 74.8553L113.089 74.8336ZM110.805 72.8026C110.805 71.7653 110.42 71.7002 109.653 71.7002C108.886 71.7002 108.591 71.8825 108.561 72.8026H110.805Z" fill="#D8282F"/>
<path d="M117.942 72.8937C117.942 72.4033 117.968 71.8564 117.344 71.8564C116.655 71.8564 116.477 72.4033 116.477 72.9761V77.1597H114.198V70.1856H116.412V71.2055H116.508C116.632 70.854 116.87 70.5545 117.184 70.3546C117.498 70.1548 117.87 70.0663 118.241 70.1032C119.831 70.1032 119.974 71.4051 119.974 72.681V73.2278H117.916L117.942 72.8937Z" fill="#D8282F"/>
<path d="M0.303223 83.3961C0.303223 82.2461 0.957516 81.9727 2.03645 81.9727H3.47069C5.20392 81.9727 5.43357 82.3415 5.42058 83.4569H4.20298V83.3484C4.20298 83.0663 3.995 82.9838 3.63102 82.9838H2.30077C1.65947 82.9838 1.53815 83.2833 1.53815 83.7737V84.2077C1.53815 84.7762 1.65948 84.9932 2.23577 84.9932H3.53569C4.08599 84.9932 4.25065 84.9411 4.25065 84.4507H5.46824V84.8196C5.46824 85.4836 5.22993 86.0087 4.00367 86.0087H2.03645C0.940184 86.0087 0.303223 85.7353 0.303223 84.5809V83.3961ZM42.6416 82.0161H47.291V82.9969H45.5578V85.9566H44.3402V82.9969H42.607L42.6416 82.0161ZM36.142 82.0161H39.8208C40.7611 82.0161 41.0124 82.4761 41.0124 83.1835V83.4352C41.0124 83.9646 40.8911 84.2728 40.3321 84.403C40.6918 84.4681 40.9951 84.6243 40.9951 85.2709V85.9436H39.7905V85.4662C39.7905 85.0539 39.6692 84.9194 39.2878 84.9194H37.3726V85.9436H36.155L36.142 82.0161ZM37.3596 83.9516H39.3572C39.6865 83.9516 39.7905 83.8214 39.7905 83.5176V83.3874C39.7905 83.0403 39.6172 82.9535 39.2315 82.9535H37.325L37.3596 83.9516ZM28.8495 83.3961C28.8495 82.2461 29.5038 81.9727 30.5827 81.9727H32.5369C33.6375 81.9727 34.2701 82.2461 34.2701 83.3961V84.5722C34.2701 85.7266 33.6159 86 32.5369 86H30.5827C29.4864 86 28.8495 85.7266 28.8495 84.5722V83.3961ZM30.1017 84.199C30.1017 84.7675 30.2231 84.9845 30.7994 84.9845H32.3593C32.9356 84.9845 33.0569 84.7675 33.0569 84.199V83.765C33.0569 83.2746 32.9356 82.9752 32.2899 82.9752H30.8644C30.2231 82.9752 30.1017 83.2746 30.1017 83.765V84.199ZM22.9522 82.0291H27.1033V82.9752H24.1914V83.7086H26.9863V84.6243H24.1914V85.9697H22.9738L22.9522 82.0291ZM14.5287 82.0291H16.3919L17.7698 84.5635L19.1477 82.0291H21.0196V85.9697H19.8584V83.1401L18.2595 85.9697H17.3495L15.7506 83.1401V85.9697H14.5287V82.0291ZM7.2318 83.4091C7.2318 82.2591 7.8861 81.9857 8.96503 81.9857H10.9192C12.0155 81.9857 12.6525 82.2591 12.6525 83.4091V84.5852C12.6525 85.7396 11.9982 86.013 10.9192 86.013H8.96503C7.86443 86.013 7.2318 85.7396 7.2318 84.5852V83.4091ZM8.48406 84.212C8.48406 84.7805 8.60538 84.9975 9.18168 84.9975H10.7589C11.3352 84.9975 11.4565 84.7805 11.4565 84.212V83.778C11.4565 83.2876 11.3352 82.9882 10.6939 82.9882H9.26834C8.62272 82.9882 8.50139 83.2876 8.50139 83.778L8.48406 84.212Z" fill="#575756"/>
<path d="M52.7898 82.0161H54.0074V85.9566H52.7898V82.0161ZM114.67 84.6634H115.892C115.892 85.0973 116.066 85.119 116.421 85.119H117.911C118.171 85.119 118.436 85.0887 118.436 84.7849C118.436 84.4811 118.293 84.4203 116.703 84.4203C114.87 84.4203 114.662 84.2033 114.662 83.2356C114.662 82.5238 114.727 81.9727 116.265 81.9727H117.968C119.372 81.9727 119.506 82.4457 119.506 83.1357V83.2616H118.284C118.284 82.9752 118.254 82.8536 117.69 82.8536H116.343C116.066 82.8536 115.879 82.9448 115.879 83.1574C115.879 83.5003 116.027 83.5133 117.335 83.5046C119.229 83.5046 119.671 83.6175 119.671 84.7632C119.671 85.8264 119.307 86 117.686 86H116.209C115.099 86 114.653 85.7917 114.653 84.9368L114.67 84.6634ZM107.412 82.0161H109.302L111.594 84.876V82.0161H112.811V85.9566H110.94L108.652 83.0923V85.9566H107.434L107.412 82.0161ZM100.12 83.3961C100.12 82.2461 100.774 81.9727 101.853 81.9727H103.807C104.908 81.9727 105.562 82.2461 105.562 83.3961V84.5722C105.562 85.7266 104.908 86 103.807 86H101.853C100.757 86 100.12 85.7266 100.12 84.5722V83.3961ZM101.372 84.199C101.372 84.7675 101.493 84.9845 102.07 84.9845H103.63C104.206 84.9845 104.327 84.7675 104.327 84.199V83.765C104.327 83.2746 104.206 82.9752 103.565 82.9752H102.135C101.493 82.9752 101.372 83.2746 101.372 83.765V84.199ZM97.0001 82.0291H98.222V85.9697H97.0001V82.0291ZM90.6565 82.0291H95.3059V83.0099H93.5726V85.9697H92.355V83.0099H90.6218L90.6565 82.0291ZM86.0504 82.0291H87.6363L89.8245 85.9697H88.4683L88.087 85.2709H85.6171L85.2618 85.9697H83.8969L86.0504 82.0291ZM86.0721 84.4247H87.632L86.8434 82.9448L86.0721 84.4247ZM77.4883 82.0161H78.8229L80.3741 84.9411L81.9297 82.0161H83.2643L81.1281 85.9566H79.6245L77.4883 82.0161ZM70.577 83.3961C70.577 82.2461 71.2313 81.9727 72.3319 81.9727H74.2861C75.3824 81.9727 76.0194 82.2461 76.0194 83.3961V84.5722C76.0194 85.7266 75.3651 86 74.2861 86H72.3319C71.2313 86 70.577 85.7266 70.577 84.5722V83.3961ZM71.8293 84.199C71.8293 84.7675 71.9506 84.9845 72.5269 84.9845H74.0868C74.6631 84.9845 74.7845 84.7675 74.7845 84.199V83.765C74.7845 83.2746 74.6631 82.9752 74.0218 82.9752H72.5919C71.9506 82.9752 71.8293 83.2746 71.8293 83.765V84.199ZM63.3365 82.0291H65.2257L67.5136 84.889V82.0291H68.7312V85.9697H66.8419L64.5541 83.1054V85.9697H63.3365V82.0291ZM56.0049 82.0291H57.8941L60.182 84.889V82.0291H61.3996V85.9697H59.5104L57.2225 83.1054V85.9697H56.0049V82.0291Z" fill="#575756"/>
</g>
<defs>
<clipPath id="clip0_741_3322">
<rect width="120" height="52" fill="white" transform="translate(0 34)"/>
</clipPath>
</defs>
</svg>
